<svg width="33" height="33" viewBox="0 0 33 33" fill="none" xmlns="http://www.w3.org/2000/svg">
<path fill-rule="evenodd" clip-rule="evenodd" d="M2.75 16.5C2.75 8.90588 8.90588 2.75 16.5 2.75C24.0941 2.75 30.25 8.90588 30.25 16.5C30.25 24.0941 24.0941 30.25 16.5 30.25C8.90588 30.25 2.75 24.0941 2.75 16.5ZM16.5 5.5C13.5826 5.5 10.7847 6.65893 8.72183 8.72183C6.65893 10.7847 5.5 13.5826 5.5 16.5C5.5 19.4174 6.65893 22.2153 8.72183 24.2782C10.7847 26.3411 13.5826 27.5 16.5 27.5C19.4174 27.5 22.2153 26.3411 24.2782 24.2782C26.3411 22.2153 27.5 19.4174 27.5 16.5C27.5 13.5826 26.3411 10.7847 24.2782 8.72183C22.2153 6.65893 19.4174 5.5 16.5 5.5Z" fill="white"/>
<path fill-rule="evenodd" clip-rule="evenodd" d="M17.875 9.625C17.875 9.26033 17.7301 8.91059 17.4723 8.65273C17.2144 8.39487 16.8647 8.25 16.5 8.25C16.1353 8.25 15.7856 8.39487 15.5277 8.65273C15.2699 8.91059 15.125 9.26033 15.125 9.625V15.125H9.625C9.26033 15.125 8.91059 15.2699 8.65273 15.5277C8.39487 15.7856 8.25 16.1353 8.25 16.5C8.25 16.8647 8.39487 17.2144 8.65273 17.4723C8.91059 17.7301 9.26033 17.875 9.625 17.875H15.125V23.375C15.125 23.7397 15.2699 24.0894 15.5277 24.3473C15.7856 24.6051 16.1353 24.75 16.5 24.75C16.8647 24.75 17.2144 24.6051 17.4723 24.3473C17.7301 24.0894 17.875 23.7397 17.875 23.375V17.875H23.375C23.7397 17.875 24.0894 17.7301 24.3473 17.4723C24.6051 17.2144 24.75 16.8647 24.75 16.5C24.75 16.1353 24.6051 15.7856 24.3473 15.5277C24.0894 15.2699 23.7397 15.125 23.375 15.125H17.875V9.625Z" fill="white"/>
</svg>
