<svg width="22" height="22" viewBox="0 0 22 22" fill="none" xmlns="http://www.w3.org/2000/svg">
<path fill-rule="evenodd" clip-rule="evenodd" d="M1.83301 11C1.83301 5.93725 5.93692 1.83333 10.9997 1.83333C16.0624 1.83333 20.1663 5.93725 20.1663 11C20.1663 16.0627 16.0624 20.1667 10.9997 20.1667C5.93692 20.1667 1.83301 16.0627 1.83301 11ZM10.9997 3.66666C9.05475 3.66666 7.18949 4.43928 5.81422 5.81455C4.43896 7.18981 3.66634 9.05507 3.66634 11C3.66634 12.9449 4.43896 14.8102 5.81422 16.1854C7.18949 17.5607 9.05475 18.3333 10.9997 18.3333C12.9446 18.3333 14.8099 17.5607 16.1851 16.1854C17.5604 14.8102 18.333 12.9449 18.333 11C18.333 9.05507 17.5604 7.18981 16.1851 5.81455C14.8099 4.43928 12.9446 3.66666 10.9997 3.66666Z" fill="black"/>
<path fill-rule="evenodd" clip-rule="evenodd" d="M11.9167 6.41667C11.9167 6.17355 11.8201 5.94039 11.6482 5.76849C11.4763 5.59658 11.2431 5.5 11 5.5C10.7569 5.5 10.5237 5.59658 10.3518 5.76849C10.1799 5.94039 10.0833 6.17355 10.0833 6.41667V10.0833H6.41667C6.17355 10.0833 5.94039 10.1799 5.76849 10.3518C5.59658 10.5237 5.5 10.7569 5.5 11C5.5 11.2431 5.59658 11.4763 5.76849 11.6482C5.94039 11.8201 6.17355 11.9167 6.41667 11.9167H10.0833V15.5833C10.0833 15.8264 10.1799 16.0596 10.3518 16.2315C10.5237 16.4034 10.7569 16.5 11 16.5C11.2431 16.5 11.4763 16.4034 11.6482 16.2315C11.8201 16.0596 11.9167 15.8264 11.9167 15.5833V11.9167H15.5833C15.8264 11.9167 16.0596 11.8201 16.2315 11.6482C16.4034 11.4763 16.5 11.2431 16.5 11C16.5 10.7569 16.4034 10.5237 16.2315 10.3518C16.0596 10.1799 15.8264 10.0833 15.5833 10.0833H11.9167V6.41667Z" fill="black"/>
</svg>
