<svg width="30" height="111" viewBox="0 0 30 111" fill="none" xmlns="http://www.w3.org/2000/svg">
<path d="M22.5989 73.983V70.4802H17.3446C15.1601 70.4802 13.4463 70.0282 12.2034 69.1243C10.9605 68.2015 10.0753 66.9774 9.54803 65.452C9.02072 63.9077 8.75707 62.2222 8.75707 60.3955V36.6384H21.7232V33.1356H5.14125V60.678C5.14125 63.0697 5.55556 65.2731 6.38419 67.2881C7.21281 69.3032 8.484 70.9228 10.1977 72.1469C11.9115 73.371 14.1055 73.983 16.7797 73.983H22.5989Z" fill="white"/>
<path d="M7.23158 55V51.4972H12.4858C14.6704 51.4972 16.3841 51.0452 17.6271 50.1412C18.87 49.2185 19.7551 47.9944 20.2824 46.4689C20.8097 44.9247 21.0734 43.2392 21.0734 41.4124V17.6554H8.10728V14.1525H24.6892V41.6949C24.6892 44.0866 24.2749 46.29 23.4463 48.3051C22.6176 50.3202 21.3465 51.9397 19.6327 53.1638C17.919 54.3879 15.725 55 13.0508 55H7.23158Z" fill="white"/>
</svg>
