<svg width="20" height="20" viewBox="0 0 20 20" fill="none" xmlns="http://www.w3.org/2000/svg">
<path d="M8.7498 15.625H17.4998V16.875H8.7498V15.625ZM4.48105 16.25L2.86855 17.8625L3.7498 18.75L6.2498 16.25L3.7498 13.75L2.8623 14.6313L4.48105 16.25ZM8.7498 9.375H17.4998V10.625H8.7498V9.375ZM4.48105 10L2.86855 11.6125L3.7498 12.5L6.2498 10L3.7498 7.5L2.8623 8.38125L4.48105 10ZM8.7498 3.125H17.4998V4.375H8.7498V3.125ZM4.48105 3.75L2.86855 5.3625L3.7498 6.25L6.2498 3.75L3.7498 1.25L2.8623 2.13125L4.48105 3.75Z" fill="black"/>
</svg>
