<svg width="22" height="22" viewBox="0 0 22 22" fill="none" xmlns="http://www.w3.org/2000/svg">
<path d="M9.16659 4.58333H12.8333C12.8333 4.0971 12.6401 3.63079 12.2963 3.28697C11.9525 2.94315 11.4861 2.75 10.9999 2.75C10.5137 2.75 10.0474 2.94315 9.70356 3.28697C9.35974 3.63079 9.16659 4.0971 9.16659 4.58333ZM7.79159 4.58333C7.79159 4.16201 7.87457 3.74481 8.0358 3.35556C8.19704 2.9663 8.43336 2.61262 8.73128 2.3147C9.02921 2.01678 9.38289 1.78045 9.77214 1.61922C10.1614 1.45799 10.5786 1.375 10.9999 1.375C11.4212 1.375 11.8384 1.45799 12.2277 1.61922C12.6169 1.78045 12.9706 2.01678 13.2686 2.3147C13.5665 2.61262 13.8028 2.9663 13.964 3.35556C14.1253 3.74481 14.2083 4.16201 14.2083 4.58333H19.4791C19.6614 4.58333 19.8363 4.65577 19.9652 4.7847C20.0942 4.91363 20.1666 5.0885 20.1666 5.27083C20.1666 5.45317 20.0942 5.62804 19.9652 5.75697C19.8363 5.8859 19.6614 5.95833 19.4791 5.95833H18.2691L17.1966 17.0601C17.1143 17.9107 16.7181 18.7002 16.0853 19.2746C15.4525 19.849 14.6284 20.167 13.7738 20.1667H8.22609C7.37163 20.1668 6.54776 19.8486 5.91512 19.2743C5.28248 18.6999 4.88642 17.9106 4.80417 17.0601L3.73075 5.95833H2.52075C2.33842 5.95833 2.16355 5.8859 2.03462 5.75697C1.90568 5.62804 1.83325 5.45317 1.83325 5.27083C1.83325 5.0885 1.90568 4.91363 2.03462 4.7847C2.16355 4.65577 2.33842 4.58333 2.52075 4.58333H7.79159ZM9.62492 8.9375C9.62492 8.75516 9.55249 8.5803 9.42355 8.45136C9.29462 8.32243 9.11976 8.25 8.93742 8.25C8.75508 8.25 8.58021 8.32243 8.45128 8.45136C8.32235 8.5803 8.24992 8.75516 8.24992 8.9375V15.8125C8.24992 15.9948 8.32235 16.1697 8.45128 16.2986C8.58021 16.4276 8.75508 16.5 8.93742 16.5C9.11976 16.5 9.29462 16.4276 9.42355 16.2986C9.55249 16.1697 9.62492 15.9948 9.62492 15.8125V8.9375ZM13.0624 8.25C13.2448 8.25 13.4196 8.32243 13.5486 8.45136C13.6775 8.5803 13.7499 8.75516 13.7499 8.9375V15.8125C13.7499 15.9948 13.6775 16.1697 13.5486 16.2986C13.4196 16.4276 13.2448 16.5 13.0624 16.5C12.8801 16.5 12.7052 16.4276 12.5763 16.2986C12.4474 16.1697 12.3749 15.9948 12.3749 15.8125V8.9375C12.3749 8.75516 12.4474 8.5803 12.5763 8.45136C12.7052 8.32243 12.8801 8.25 13.0624 8.25ZM6.17275 16.9281C6.22219 17.4383 6.45989 17.9119 6.83951 18.2564C7.21912 18.601 7.71344 18.7918 8.22609 18.7917H13.7738C14.2864 18.7918 14.7807 18.601 15.1603 18.2564C15.5399 17.9119 15.7776 17.4383 15.8271 16.9281L16.8886 5.95833H5.11125L6.17275 16.9281Z" fill="black"/>
</svg>
