<svg width="29" height="29" viewBox="0 0 29 29" fill="none" xmlns="http://www.w3.org/2000/svg">
<path d="M4.71252 15.5875C4.95055 15.5875 5.18624 15.5406 5.40614 15.4496C5.62604 15.3585 5.82585 15.225 5.99416 15.0567C6.16246 14.8883 6.29597 14.6885 6.38706 14.4686C6.47814 14.2487 6.52502 14.013 6.52502 13.775C6.52502 13.537 6.47814 13.3013 6.38706 13.0814C6.29597 12.8615 6.16246 12.6617 5.99416 12.4934C5.82585 12.3251 5.62604 12.1916 5.40614 12.1005C5.18624 12.0094 4.95055 11.9625 4.71252 11.9625C4.23182 11.9625 3.7708 12.1535 3.43089 12.4934C3.09098 12.8333 2.90002 13.2943 2.90002 13.775C2.90002 14.2557 3.09098 14.7167 3.43089 15.0567C3.7708 15.3966 4.23182 15.5875 4.71252 15.5875ZM11.2375 15.5875C11.4755 15.5875 11.7112 15.5406 11.9311 15.4496C12.151 15.3585 12.3508 15.225 12.5192 15.0567C12.6875 14.8883 12.821 14.6885 12.9121 14.4686C13.0031 14.2487 13.05 14.013 13.05 13.775C13.05 13.537 13.0031 13.3013 12.9121 13.0814C12.821 12.8615 12.6875 12.6617 12.5192 12.4934C12.3508 12.3251 12.151 12.1916 11.9311 12.1005C11.7112 12.0094 11.4755 11.9625 11.2375 11.9625C10.7568 11.9625 10.2958 12.1535 9.95589 12.4934C9.61598 12.8333 9.42502 13.2943 9.42502 13.775C9.42502 14.2557 9.61598 14.7167 9.95589 15.0567C10.2958 15.3966 10.7568 15.5875 11.2375 15.5875ZM17.7625 15.5875C18.0005 15.5875 18.2362 15.5406 18.4561 15.4496C18.676 15.3585 18.8758 15.225 19.0442 15.0567C19.2125 14.8883 19.346 14.6885 19.4371 14.4686C19.5281 14.2487 19.575 14.013 19.575 13.775C19.575 13.537 19.5281 13.3013 19.4371 13.0814C19.346 12.8615 19.2125 12.6617 19.0442 12.4934C18.8758 12.3251 18.676 12.1916 18.4561 12.1005C18.2362 12.0094 18.0005 11.9625 17.7625 11.9625C17.2818 11.9625 16.8208 12.1535 16.4809 12.4934C16.141 12.8333 15.95 13.2943 15.95 13.775C15.95 14.2557 16.141 14.7167 16.4809 15.0567C16.8208 15.3966 17.2818 15.5875 17.7625 15.5875ZM26.1 13.775C26.1 14.2557 25.9091 14.7167 25.5692 15.0567C25.2292 15.3966 24.7682 15.5875 24.2875 15.5875C23.8068 15.5875 23.3458 15.3966 23.0059 15.0567C22.666 14.7167 22.475 14.2557 22.475 13.775C22.475 13.2943 22.666 12.8333 23.0059 12.4934C23.3458 12.1535 23.8068 11.9625 24.2875 11.9625C24.7682 11.9625 25.2292 12.1535 25.5692 12.4934C25.9091 12.8333 26.1 13.2943 26.1 13.775Z" fill="black"/>
</svg>
