<svg width="18" height="26" viewBox="0 0 18 26" fill="none" xmlns="http://www.w3.org/2000/svg">
<path d="M8.02345 17.3643C7.98063 17.3053 7.79756 17.0826 7.64697 16.8751C6.69987 15.6585 5.14967 12.485 4.67649 10.824C4.60046 10.5718 4.43953 9.93401 4.4292 9.59327C4.4292 9.26676 4.48235 8.95551 4.59012 8.65851C4.74072 8.28826 4.97767 7.99125 5.25745 7.82851C5.45159 7.72374 6.03255 7.561 6.04288 7.561C6.67846 7.39826 7.71119 7.30875 8.85243 7.30875C9.93979 7.30875 10.9304 7.39826 11.5756 7.5315C11.5859 7.54676 12.3079 7.7095 12.5552 7.88751C13.007 8.21401 13.2875 8.85176 13.2875 9.53427V9.59327C13.2764 10.0378 12.9959 10.9725 12.9856 10.9725C12.5116 12.544 11.0375 15.6443 10.0579 16.8903C10.0579 16.8903 9.80617 17.2412 9.64894 17.3938C9.42305 17.6318 9.14328 17.7498 8.8635 17.7498C8.55125 17.7498 8.2604 17.6166 8.02345 17.3643Z" fill="#933C58"/>
</svg>
