<svg width="19" height="19" viewBox="0 0 19 19" fill="none" xmlns="http://www.w3.org/2000/svg">
<g clip-path="url(#clip0_291_35)">
<path fill-rule="evenodd" clip-rule="evenodd" d="M10.0597 12.4347C9.91119 12.5831 9.70987 12.6665 9.49995 12.6665C9.29002 12.6665 9.0887 12.5831 8.94024 12.4347L4.46178 7.95626C4.38617 7.88323 4.32586 7.79587 4.28437 7.69929C4.24288 7.6027 4.22104 7.49882 4.22012 7.3937C4.21921 7.28858 4.23924 7.18434 4.27905 7.08704C4.31885 6.98975 4.37764 6.90136 4.45197 6.82703C4.5263 6.7527 4.61469 6.69391 4.71198 6.65411C4.80928 6.6143 4.91352 6.59427 5.01864 6.59518C5.12376 6.5961 5.22764 6.61794 5.32422 6.65943C5.42081 6.70092 5.50817 6.76123 5.5812 6.83684L9.49995 10.7556L13.4187 6.83684C13.568 6.69263 13.768 6.61284 13.9756 6.61464C14.1831 6.61644 14.3817 6.6997 14.5285 6.84648C14.6753 6.99327 14.7585 7.19183 14.7603 7.3994C14.7621 7.60697 14.6823 7.80695 14.5381 7.95626L10.0597 12.4347Z" fill="white"/>
</g>
<defs>
<clipPath id="clip0_291_35">
<rect width="19" height="19" fill="white"/>
</clipPath>
</defs>
</svg>
