<svg width="19" height="19" viewBox="0 0 19 19" fill="none" xmlns="http://www.w3.org/2000/svg">
<g clip-path="url(#clip0_50_1230)">
<path fill-rule="evenodd" clip-rule="evenodd" d="M10.0598 12.4348C9.91132 12.5832 9.70999 12.6666 9.50007 12.6666C9.29015 12.6666 9.08882 12.5832 8.94036 12.4348L4.4619 7.95632C4.38629 7.88329 4.32598 7.79593 4.28449 7.69935C4.243 7.60276 4.22116 7.49888 4.22024 7.39376C4.21933 7.28864 4.23936 7.1844 4.27917 7.0871C4.31897 6.98981 4.37776 6.90142 4.45209 6.82709C4.52642 6.75276 4.61481 6.69397 4.7121 6.65417C4.8094 6.61436 4.91364 6.59433 5.01876 6.59524C5.12388 6.59616 5.22776 6.618 5.32435 6.65949C5.42093 6.70098 5.50829 6.76129 5.58132 6.8369L9.50007 10.7557L13.4188 6.8369C13.5681 6.69269 13.7681 6.6129 13.9757 6.6147C14.1832 6.6165 14.3818 6.69976 14.5286 6.84654C14.6754 6.99333 14.7586 7.19189 14.7604 7.39946C14.7622 7.60703 14.6824 7.80701 14.5382 7.95632L10.0598 12.4348Z" fill="black"/>
</g>
<defs>
<clipPath id="clip0_50_1230">
<rect width="19" height="19" fill="white"/>
</clipPath>
</defs>
</svg>
