<svg width="23" height="21" viewBox="0 0 23 21" fill="none" xmlns="http://www.w3.org/2000/svg">
<g filter="url(#filter0_d_1_1322)">
<path d="M3.84778 10.5304C6.76388 4.05014 15.5122 4.05014 18.4283 10.5304" stroke="#8A8A8A" stroke-width="1.21504" stroke-linecap="round" stroke-linejoin="round"/>
<path d="M11.1378 13.7705C10.8187 13.7705 10.5027 13.7076 10.2079 13.5855C9.91306 13.4634 9.64517 13.2844 9.41952 13.0587C9.19386 12.8331 9.01487 12.5652 8.89274 12.2703C8.77062 11.9755 8.70776 11.6595 8.70776 11.3404C8.70776 11.0213 8.77062 10.7053 8.89274 10.4104C9.01487 10.1156 9.19386 9.84772 9.41952 9.62206C9.64517 9.39641 9.91306 9.21741 10.2079 9.09529C10.5027 8.97316 10.8187 8.91031 11.1378 8.91031C11.7823 8.91031 12.4004 9.16633 12.8562 9.62206C13.3119 10.0778 13.5679 10.6959 13.5679 11.3404C13.5679 11.9849 13.3119 12.603 12.8562 13.0587C12.4004 13.5145 11.7823 13.7705 11.1378 13.7705Z" fill="#8A8A8A" stroke="#8A8A8A" stroke-width="1.21504" stroke-linecap="round" stroke-linejoin="round"/>
</g>
<defs>
<filter id="filter0_d_1_1322" x="-1.82239" y="0" width="25.9209" height="25.9209" filterUnits="userSpaceOnUse" color-interpolation-filters="sRGB">
<feFlood flood-opacity="0" result="BackgroundImageFix"/>
<feColorMatrix in="SourceAlpha" type="matrix" values="0 0 0 0 0 0 0 0 0 0 0 0 0 0 0 0 0 0 127 0" result="hardAlpha"/>
<feOffset dy="3.24011"/>
<feGaussianBlur stdDeviation="1.62006"/>
<feComposite in2="hardAlpha" operator="out"/>
<feColorMatrix type="matrix" values="0 0 0 0 0 0 0 0 0 0 0 0 0 0 0 0 0 0 0.25 0"/>
<feBlend mode="normal" in2="BackgroundImageFix" result="effect1_dropShadow_1_1322"/>
<feBlend mode="normal" in="SourceGraphic" in2="effect1_dropShadow_1_1322" result="shape"/>
</filter>
</defs>
</svg>
