<svg width="25" height="25" viewBox="0 0 25 25" fill="none" xmlns="http://www.w3.org/2000/svg">
<path d="M12.5 6.47345C6.60469 6.47345 1.95312 12.5 1.95312 12.5C1.95312 12.5 6.60469 18.5274 12.5 18.5274C17.0078 18.5274 23.0469 12.5 23.0469 12.5C23.0469 12.5 17.0078 6.47345 12.5 6.47345ZM12.5 16.2547C10.4297 16.2547 8.74453 14.5703 8.74453 12.5C8.74453 10.4297 10.4297 8.74454 12.5 8.74454C14.5703 8.74454 16.2555 10.4297 16.2555 12.5C16.2555 14.5703 14.5703 16.2547 12.5 16.2547ZM12.5 10.3078C12.2087 10.3023 11.9192 10.355 11.6485 10.4626C11.3777 10.5703 11.1312 10.7309 10.9232 10.9349C10.7152 11.139 10.5501 11.3825 10.4373 11.6512C10.3245 11.9198 10.2664 12.2083 10.2664 12.4996C10.2664 12.791 10.3245 13.0794 10.4373 13.3481C10.5501 13.6167 10.7152 13.8602 10.9232 14.0643C11.1312 14.2684 11.3777 14.4289 11.6485 14.5366C11.9192 14.6443 12.2087 14.6969 12.5 14.6914C13.0741 14.6806 13.6211 14.4449 14.0233 14.035C14.4255 13.6252 14.6508 13.0739 14.6508 12.4996C14.6508 11.9254 14.4255 11.3741 14.0233 10.9642C13.6211 10.5543 13.0741 10.3187 12.5 10.3078Z" fill="black"/>
</svg>
