<svg width="21" height="21" viewBox="0 0 21 21" fill="none" xmlns="http://www.w3.org/2000/svg">
<path d="M8.46562 4.59375C8.20312 3.47812 7.15312 2.625 5.90625 2.625C4.65937 2.625 3.675 3.47812 3.34687 4.59375H1.3125V5.90625H3.34687C3.60938 7.02187 4.65937 7.875 5.90625 7.875C7.15312 7.875 8.1375 7.02187 8.46562 5.90625H19.6875V4.59375H8.46562ZM5.90625 6.5625C5.18438 6.5625 4.59375 5.97187 4.59375 5.25C4.59375 4.52812 5.18438 3.9375 5.90625 3.9375C6.62813 3.9375 7.21875 4.52812 7.21875 5.25C7.21875 5.97187 6.62813 6.5625 5.90625 6.5625ZM15.0938 7.875C13.8469 7.875 12.8625 8.72813 12.5344 9.84375H1.3125V11.1562H12.5344C12.7969 12.2719 13.8469 13.125 15.0938 13.125C16.3406 13.125 17.325 12.2719 17.6531 11.1562H19.6875V9.84375H17.6531C17.3906 8.72813 16.3406 7.875 15.0938 7.875ZM15.0938 11.8125C14.3719 11.8125 13.7812 11.2219 13.7812 10.5C13.7812 9.77812 14.3719 9.1875 15.0938 9.1875C15.8156 9.1875 16.4062 9.77812 16.4062 10.5C16.4062 11.2219 15.8156 11.8125 15.0938 11.8125ZM9.1875 13.125C7.94063 13.125 6.95625 13.9781 6.62813 15.0938H1.3125V16.4062H6.62813C6.89063 17.5219 7.94063 18.375 9.1875 18.375C10.4344 18.375 11.4187 17.5219 11.7469 16.4062H19.6875V15.0938H11.7469C11.4844 13.9781 10.4344 13.125 9.1875 13.125ZM9.1875 17.0625C8.46562 17.0625 7.875 16.4719 7.875 15.75C7.875 15.0281 8.46562 14.4375 9.1875 14.4375C9.90938 14.4375 10.5 15.0281 10.5 15.75C10.5 16.4719 9.90938 17.0625 9.1875 17.0625Z" fill="black"/>
</svg>
