<svg width="28" height="28" viewBox="0 0 28 28" fill="none" xmlns="http://www.w3.org/2000/svg">
<path d="M20.408 15.067L24.993 10.474V19.744C24.9926 20.5734 24.675 21.3714 24.1054 21.9743C23.5357 22.5772 22.7571 22.9395 21.929 22.987L21.744 22.992H6.25C5.42036 22.9918 4.6222 22.6744 4.01906 22.1047C3.41592 21.535 3.05348 20.7563 3.006 19.928L3 19.743V10.121L13.65 15.661C13.7569 15.7165 13.8755 15.7456 13.996 15.7456C14.1165 15.7456 14.2351 15.7165 14.342 15.661L15.778 14.914C15.824 14.9673 15.872 15.0186 15.922 15.068C16.2164 15.3626 16.566 15.5964 16.9508 15.7559C17.3355 15.9153 17.748 15.9974 18.1645 15.9974C18.581 15.9974 18.9935 15.9153 19.3782 15.7559C19.763 15.5964 20.1126 15.3626 20.407 15.068M6.248 4.99998H17.52L14.509 8.00998C14.2745 8.24464 14.1115 8.54115 14.039 8.86491C13.9666 9.18868 13.9877 9.52636 14.0998 9.8386C14.212 10.1508 14.4106 10.4248 14.6725 10.6284C14.9344 10.8321 15.2488 10.9572 15.579 10.989C15.3149 11.3606 15.1341 11.7847 15.0488 12.2326C14.9636 12.6804 14.9759 13.1413 15.085 13.584L13.997 14.15L3 8.43198V8.24798C3.00019 7.41817 3.31777 6.61987 3.88765 6.01671C4.45753 5.41355 5.23654 5.05121 6.065 5.00398L6.248 4.99998Z" fill="black"/>
<path d="M21.9542 4.09995C22.3439 3.71035 22.8723 3.49147 23.4232 3.49147C23.9742 3.49147 24.5026 3.71035 24.8922 4.09995C25.2818 4.48956 25.5007 5.01797 25.5007 5.56895C25.5007 6.11993 25.2818 6.64835 24.8922 7.03795L18.6402 13.3C18.5131 13.4203 18.3441 13.4863 18.169 13.484C17.994 13.4816 17.8268 13.411 17.703 13.2872C17.5792 13.1634 17.5086 12.9962 17.5062 12.8212C17.5039 12.6461 17.5699 12.4771 17.6902 12.35L22.7742 7.27795C22.844 7.20835 22.8993 7.1257 22.9371 7.03471C22.9749 6.94372 22.9944 6.84618 22.9945 6.74766C22.9946 6.64914 22.9753 6.55156 22.9377 6.4605C22.9 6.36944 22.8448 6.28668 22.7752 6.21695C22.7056 6.14722 22.623 6.09188 22.532 6.05409C22.441 6.0163 22.3435 5.99681 22.245 5.99671C22.1464 5.99662 22.0489 6.01593 21.9578 6.05355C21.8667 6.09117 21.784 6.14635 21.7142 6.21595L16.6302 11.29C16.2414 11.7008 16.0282 12.2471 16.0359 12.8127C16.0436 13.3783 16.2717 13.9186 16.6716 14.3186C17.0715 14.7187 17.6117 14.9469 18.1773 14.9548C18.7429 14.9627 19.2893 14.7497 19.7002 14.361L25.9532 8.09795C26.624 7.42695 27.0007 6.51699 27.0005 5.56825C27.0003 4.6195 26.6232 3.70968 25.9522 3.03895C25.2812 2.36822 24.3713 1.99151 23.4225 1.9917C22.4738 1.99189 21.564 2.36895 20.8932 3.03995L15.2162 8.71695C15.1426 8.78561 15.0835 8.86841 15.0425 8.96041C15.0015 9.05241 14.9794 9.15173 14.9777 9.25243C14.9759 9.35313 14.9944 9.45316 15.0321 9.54655C15.0698 9.63994 15.126 9.72477 15.1972 9.79599C15.2684 9.86721 15.3533 9.92335 15.4466 9.96107C15.54 9.9988 15.6401 10.0173 15.7408 10.0155C15.8415 10.0138 15.9408 9.99172 16.0328 9.95073C16.1248 9.90974 16.2076 9.85064 16.2762 9.77695L21.9542 4.09995Z" fill="black"/>
</svg>
