<svg width="29" height="29" viewBox="0 0 29 29" fill="none" xmlns="http://www.w3.org/2000/svg">
<path d="M12.0834 9.66665V7.24998C12.0834 6.60904 12.338 5.99435 12.7912 5.54114C13.2444 5.08793 13.8591 4.83331 14.5 4.83331H22.9584C23.5993 4.83331 24.214 5.08793 24.6672 5.54114C25.1204 5.99435 25.375 6.60904 25.375 7.24998V21.75C25.375 22.3909 25.1204 23.0056 24.6672 23.4588C24.214 23.912 23.5993 24.1666 22.9584 24.1666H14.5C13.8591 24.1666 13.2444 23.912 12.7912 23.4588C12.338 23.0056 12.0834 22.3909 12.0834 21.75V19.3333" stroke="white" stroke-width="2" stroke-linecap="round" stroke-linejoin="round"/>
<path d="M18.125 14.5H3.625M3.625 14.5L7.25 10.875M3.625 14.5L7.25 18.125" stroke="white" stroke-width="2" stroke-linecap="round" stroke-linejoin="round"/>
</svg>
