<svg width="57" height="55" viewBox="0 0 57 55" fill="none" xmlns="http://www.w3.org/2000/svg">
<rect width="57" height="55" rx="27.5" fill="white"/>
<path d="M23.125 36V33.8203H26.3945C27.7539 33.8203 28.8203 33.5391 29.5938 32.9766C30.3672 32.4023 30.918 31.6406 31.2461 30.6914C31.5742 29.7305 31.7383 28.6816 31.7383 27.5449V12.7617H23.6699V10.582H33.9883V27.7207C33.9883 29.209 33.7305 30.5801 33.2148 31.834C32.6992 33.0879 31.9082 34.0957 30.8418 34.8574C29.7754 35.6191 28.4102 36 26.7461 36H23.125Z" fill="black"/>
<path d="M33.4521 48V45.8203H30.1826C28.8232 45.8203 27.7568 45.5391 26.9834 44.9766C26.21 44.4023 25.6592 43.6406 25.3311 42.6914C25.0029 41.7305 24.8389 40.6816 24.8389 39.5449V24.7617H32.9072V22.582H22.5889V39.7207C22.5889 41.209 22.8467 42.5801 23.3623 43.834C23.8779 45.0879 24.6689 46.0957 25.7354 46.8574C26.8018 47.6191 28.167 48 29.8311 48H33.4521Z" fill="black"/>
</svg>
