<svg width="26" height="26" viewBox="0 0 26 26" fill="none" xmlns="http://www.w3.org/2000/svg">
<path d="M20.5834 10.8333C21.4454 10.8333 22.272 11.1757 22.8815 11.7852C23.491 12.3947 23.8334 13.2214 23.8334 14.0833V17.3333C23.8334 18.1953 23.491 19.0219 22.8815 19.6314C22.272 20.2409 21.4454 20.5833 20.5834 20.5833V21.6298C20.5834 22.7782 19.2444 23.4054 18.3626 22.6698L15.8579 20.5833H13.0001C12.1381 20.5833 11.3115 20.2409 10.702 19.6314C10.0925 19.0219 9.75008 18.1953 9.75008 17.3333V14.0833C9.75008 13.2214 10.0925 12.3947 10.702 11.7852C11.3115 11.1757 12.1381 10.8333 13.0001 10.8333H20.5834ZM17.3334 4.33333C18.1954 4.33333 19.022 4.67574 19.6315 5.28524C20.241 5.89473 20.5834 6.72138 20.5834 7.58333V8.66667H11.9167C10.7675 8.66667 9.66528 9.12321 8.85262 9.93587C8.03996 10.7485 7.58341 11.8507 7.58341 13V17.3333C7.58341 18.4643 8.01675 19.4957 8.72741 20.267L7.58341 21.125C6.69075 21.7945 5.41675 21.1575 5.41675 20.0417V18.4167C4.55479 18.4167 3.72814 18.0743 3.11865 17.4648C2.50916 16.8553 2.16675 16.0286 2.16675 15.1667V7.58333C2.16675 6.72138 2.50916 5.89473 3.11865 5.28524C3.72814 4.67574 4.55479 4.33333 5.41675 4.33333H17.3334Z" fill="black"/>
</svg>
