<svg width="26" height="26" viewBox="0 0 26 26" fill="none" xmlns="http://www.w3.org/2000/svg">
<path d="M12.9999 2.16667C10.9887 2.16667 9.05983 2.96562 7.63768 4.38777C6.21553 5.80993 5.41657 7.73878 5.41657 9.75V13.572C5.41673 13.7401 5.37778 13.9058 5.30282 14.0563L3.44274 17.7753C3.35187 17.957 3.30897 18.1589 3.3181 18.3619C3.32723 18.5648 3.38809 18.7621 3.49489 18.9349C3.6017 19.1077 3.75092 19.2503 3.92836 19.3492C4.1058 19.4481 4.30559 19.5 4.50874 19.5H21.4911C21.6942 19.5 21.894 19.4481 22.0715 19.3492C22.2489 19.2503 22.3981 19.1077 22.5049 18.9349C22.6117 18.7621 22.6726 18.5648 22.6817 18.3619C22.6908 18.1589 22.6479 17.957 22.5571 17.7753L20.6981 14.0563C20.6227 13.9059 20.5834 13.7401 20.5832 13.572V9.75C20.5832 7.73878 19.7843 5.80993 18.3621 4.38777C16.94 2.96562 15.0111 2.16667 12.9999 2.16667ZM12.9999 22.75C12.3275 22.7504 11.6716 22.5422 11.1225 22.1541C10.5734 21.7661 10.1582 21.2173 9.93407 20.5833H16.0657C15.8416 21.2173 15.4264 21.7661 14.8773 22.1541C14.3282 22.5422 13.6723 22.7504 12.9999 22.75Z" fill="black"/>
</svg>
