<svg width="695" height="337" viewBox="0 0 695 337" fill="none" xmlns="http://www.w3.org/2000/svg">
<circle cx="507" cy="10.5" r="5" fill="#FF8CB0"/>
<path d="M524.846 12.83H520.59L519.806 15H518.462L521.99 5.298H523.46L526.974 15H525.63L524.846 12.83ZM524.482 11.794L522.718 6.866L520.954 11.794H524.482ZM528.036 11.15C528.036 10.3567 528.194 9.666 528.512 9.078C528.829 8.48067 529.268 8.01867 529.828 7.692C530.397 7.36533 531.046 7.202 531.774 7.202C532.716 7.202 533.491 7.43067 534.098 7.888C534.714 8.34533 535.12 8.98 535.316 9.792H533.944C533.813 9.32533 533.556 8.95667 533.174 8.686C532.8 8.41533 532.334 8.28 531.774 8.28C531.046 8.28 530.458 8.532 530.01 9.036C529.562 9.53067 529.338 10.2353 529.338 11.15C529.338 12.074 529.562 12.788 530.01 13.292C530.458 13.796 531.046 14.048 531.774 14.048C532.334 14.048 532.8 13.9173 533.174 13.656C533.547 13.3947 533.804 13.0213 533.944 12.536H535.316C535.11 13.32 534.7 13.95 534.084 14.426C533.468 14.8927 532.698 15.126 531.774 15.126C531.046 15.126 530.397 14.9627 529.828 14.636C529.268 14.3093 528.829 13.8473 528.512 13.25C528.194 12.6527 528.036 11.9527 528.036 11.15ZM540.824 7.188C541.402 7.188 541.925 7.314 542.392 7.566C542.858 7.80867 543.222 8.17733 543.484 8.672C543.754 9.16667 543.89 9.76867 543.89 10.478V15H542.63V10.66C542.63 9.89467 542.438 9.31133 542.056 8.91C541.673 8.49933 541.15 8.294 540.488 8.294C539.816 8.294 539.279 8.504 538.878 8.924C538.486 9.344 538.29 9.95533 538.29 10.758V15H537.016V4.64H538.29V8.42C538.542 8.028 538.887 7.72467 539.326 7.51C539.774 7.29533 540.273 7.188 540.824 7.188ZM546.629 6.082C546.386 6.082 546.181 5.998 546.013 5.83C545.845 5.662 545.761 5.45667 545.761 5.214C545.761 4.97133 545.845 4.766 546.013 4.598C546.181 4.43 546.386 4.346 546.629 4.346C546.862 4.346 547.058 4.43 547.217 4.598C547.385 4.766 547.469 4.97133 547.469 5.214C547.469 5.45667 547.385 5.662 547.217 5.83C547.058 5.998 546.862 6.082 546.629 6.082ZM547.245 7.328V15H545.971V7.328H547.245ZM556.416 10.87C556.416 11.1127 556.402 11.3693 556.374 11.64H550.242C550.289 12.396 550.545 12.9887 551.012 13.418C551.488 13.838 552.062 14.048 552.734 14.048C553.285 14.048 553.742 13.922 554.106 13.67C554.479 13.4087 554.741 13.0633 554.89 12.634H556.262C556.057 13.3713 555.646 13.9733 555.03 14.44C554.414 14.8973 553.649 15.126 552.734 15.126C552.006 15.126 551.353 14.9627 550.774 14.636C550.205 14.3093 549.757 13.8473 549.43 13.25C549.103 12.6433 548.94 11.9433 548.94 11.15C548.94 10.3567 549.099 9.66133 549.416 9.064C549.733 8.46667 550.177 8.00933 550.746 7.692C551.325 7.36533 551.987 7.202 552.734 7.202C553.462 7.202 554.106 7.36067 554.666 7.678C555.226 7.99533 555.655 8.434 555.954 8.994C556.262 9.54467 556.416 10.17 556.416 10.87ZM555.1 10.604C555.1 10.1187 554.993 9.70333 554.778 9.358C554.563 9.00333 554.269 8.73733 553.896 8.56C553.532 8.37333 553.126 8.28 552.678 8.28C552.034 8.28 551.483 8.48533 551.026 8.896C550.578 9.30667 550.321 9.876 550.256 10.604H555.1ZM560.954 13.824L563.334 7.328H564.692L561.682 15H560.198L557.188 7.328H558.56L560.954 13.824ZM572.945 10.87C572.945 11.1127 572.931 11.3693 572.903 11.64H566.771C566.818 12.396 567.075 12.9887 567.541 13.418C568.017 13.838 568.591 14.048 569.263 14.048C569.814 14.048 570.271 13.922 570.635 13.67C571.009 13.4087 571.27 13.0633 571.419 12.634H572.791C572.586 13.3713 572.175 13.9733 571.559 14.44C570.943 14.8973 570.178 15.126 569.263 15.126C568.535 15.126 567.882 14.9627 567.303 14.636C566.734 14.3093 566.286 13.8473 565.959 13.25C565.633 12.6433 565.469 11.9433 565.469 11.15C565.469 10.3567 565.628 9.66133 565.945 9.064C566.263 8.46667 566.706 8.00933 567.275 7.692C567.854 7.36533 568.517 7.202 569.263 7.202C569.991 7.202 570.635 7.36067 571.195 7.678C571.755 7.99533 572.185 8.434 572.483 8.994C572.791 9.54467 572.945 10.17 572.945 10.87ZM571.629 10.604C571.629 10.1187 571.522 9.70333 571.307 9.358C571.093 9.00333 570.799 8.73733 570.425 8.56C570.061 8.37333 569.655 8.28 569.207 8.28C568.563 8.28 568.013 8.48533 567.555 8.896C567.107 9.30667 566.851 9.876 566.785 10.604H571.629ZM574.151 11.136C574.151 10.352 574.309 9.666 574.627 9.078C574.944 8.48067 575.378 8.01867 575.929 7.692C576.489 7.36533 577.114 7.202 577.805 7.202C578.402 7.202 578.957 7.342 579.471 7.622C579.984 7.89267 580.376 8.252 580.647 8.7V4.64H581.935V15H580.647V13.558C580.395 14.0153 580.021 14.3933 579.527 14.692C579.032 14.9813 578.453 15.126 577.791 15.126C577.109 15.126 576.489 14.958 575.929 14.622C575.378 14.286 574.944 13.8147 574.627 13.208C574.309 12.6013 574.151 11.9107 574.151 11.136ZM580.647 11.15C580.647 10.5713 580.53 10.0673 580.297 9.638C580.063 9.20867 579.746 8.882 579.345 8.658C578.953 8.42467 578.519 8.308 578.043 8.308C577.567 8.308 577.133 8.42 576.741 8.644C576.349 8.868 576.036 9.19467 575.803 9.624C575.569 10.0533 575.453 10.5573 575.453 11.136C575.453 11.724 575.569 12.2373 575.803 12.676C576.036 13.1053 576.349 13.4367 576.741 13.67C577.133 13.894 577.567 14.006 578.043 14.006C578.519 14.006 578.953 13.894 579.345 13.67C579.746 13.4367 580.063 13.1053 580.297 12.676C580.53 12.2373 580.647 11.7287 580.647 11.15Z" fill="#787486"/>
<circle cx="634" cy="10.5" r="5" fill="#933C58"/>
<path d="M652.084 5.242V6.278H649.424V15H648.15V6.278H645.476V5.242H652.084ZM653.176 11.136C653.176 10.352 653.335 9.666 653.652 9.078C653.97 8.48067 654.404 8.01867 654.954 7.692C655.514 7.36533 656.135 7.202 656.816 7.202C657.488 7.202 658.072 7.34667 658.566 7.636C659.061 7.92533 659.43 8.28933 659.672 8.728V7.328H660.96V15H659.672V13.572C659.42 14.02 659.042 14.3933 658.538 14.692C658.044 14.9813 657.465 15.126 656.802 15.126C656.121 15.126 655.505 14.958 654.954 14.622C654.404 14.286 653.97 13.8147 653.652 13.208C653.335 12.6013 653.176 11.9107 653.176 11.136ZM659.672 11.15C659.672 10.5713 659.556 10.0673 659.322 9.638C659.089 9.20867 658.772 8.882 658.37 8.658C657.978 8.42467 657.544 8.308 657.068 8.308C656.592 8.308 656.158 8.42 655.766 8.644C655.374 8.868 655.062 9.19467 654.828 9.624C654.595 10.0533 654.478 10.5573 654.478 11.136C654.478 11.724 654.595 12.2373 654.828 12.676C655.062 13.1053 655.374 13.4367 655.766 13.67C656.158 13.894 656.592 14.006 657.068 14.006C657.544 14.006 657.978 13.894 658.37 13.67C658.772 13.4367 659.089 13.1053 659.322 12.676C659.556 12.2373 659.672 11.7287 659.672 11.15ZM664.387 8.574C664.611 8.13533 664.928 7.79467 665.339 7.552C665.759 7.30933 666.268 7.188 666.865 7.188V8.504H666.529C665.101 8.504 664.387 9.27867 664.387 10.828V15H663.113V7.328H664.387V8.574ZM671.5 7.202C672.162 7.202 672.741 7.34667 673.236 7.636C673.74 7.92533 674.113 8.28933 674.356 8.728V7.328H675.644V15.168C675.644 15.868 675.494 16.4887 675.196 17.03C674.897 17.5807 674.468 18.01 673.908 18.318C673.357 18.626 672.713 18.78 671.976 18.78C670.968 18.78 670.128 18.542 669.456 18.066C668.784 17.59 668.387 16.9413 668.266 16.12H669.526C669.666 16.5867 669.955 16.96 670.394 17.24C670.832 17.5293 671.36 17.674 671.976 17.674C672.676 17.674 673.245 17.4547 673.684 17.016C674.132 16.5773 674.356 15.9613 674.356 15.168V13.558C674.104 14.006 673.73 14.3793 673.236 14.678C672.741 14.9767 672.162 15.126 671.5 15.126C670.818 15.126 670.198 14.958 669.638 14.622C669.087 14.286 668.653 13.8147 668.336 13.208C668.018 12.6013 667.86 11.9107 667.86 11.136C667.86 10.352 668.018 9.666 668.336 9.078C668.653 8.48067 669.087 8.01867 669.638 7.692C670.198 7.36533 670.818 7.202 671.5 7.202ZM674.356 11.15C674.356 10.5713 674.239 10.0673 674.006 9.638C673.772 9.20867 673.455 8.882 673.054 8.658C672.662 8.42467 672.228 8.308 671.752 8.308C671.276 8.308 670.842 8.42 670.45 8.644C670.058 8.868 669.745 9.19467 669.512 9.624C669.278 10.0533 669.162 10.5573 669.162 11.136C669.162 11.724 669.278 12.2373 669.512 12.676C669.745 13.1053 670.058 13.4367 670.45 13.67C670.842 13.894 671.276 14.006 671.752 14.006C672.228 14.006 672.662 13.894 673.054 13.67C673.455 13.4367 673.772 13.1053 674.006 12.676C674.239 12.2373 674.356 11.7287 674.356 11.15ZM684.797 10.87C684.797 11.1127 684.783 11.3693 684.755 11.64H678.623C678.669 12.396 678.926 12.9887 679.393 13.418C679.869 13.838 680.443 14.048 681.115 14.048C681.665 14.048 682.123 13.922 682.487 13.67C682.86 13.4087 683.121 13.0633 683.271 12.634H684.643C684.437 13.3713 684.027 13.9733 683.411 14.44C682.795 14.8973 682.029 15.126 681.115 15.126C680.387 15.126 679.733 14.9627 679.155 14.636C678.585 14.3093 678.137 13.8473 677.811 13.25C677.484 12.6433 677.321 11.9433 677.321 11.15C677.321 10.3567 677.479 9.66133 677.797 9.064C678.114 8.46667 678.557 8.00933 679.127 7.692C679.705 7.36533 680.368 7.202 681.115 7.202C681.843 7.202 682.487 7.36067 683.047 7.678C683.607 7.99533 684.036 8.434 684.335 8.994C684.643 9.54467 684.797 10.17 684.797 10.87ZM683.481 10.604C683.481 10.1187 683.373 9.70333 683.159 9.358C682.944 9.00333 682.65 8.73733 682.277 8.56C681.913 8.37333 681.507 8.28 681.059 8.28C680.415 8.28 679.864 8.48533 679.407 8.896C678.959 9.30667 678.702 9.876 678.637 10.604H683.481ZM688.032 8.378V12.9C688.032 13.2733 688.112 13.5393 688.27 13.698C688.429 13.8473 688.704 13.922 689.096 13.922H690.034V15H688.886C688.177 15 687.645 14.8367 687.29 14.51C686.936 14.1833 686.758 13.6467 686.758 12.9V8.378H685.764V7.328H686.758V5.396H688.032V7.328H690.034V8.378H688.032Z" fill="#787486"/>
<path d="M5.12784 47.2727V56H4.07102V48.3807H4.01989L1.8892 49.7955V48.7216L4.07102 47.2727H5.12784ZM7.63778 56V55.233L10.5185 52.0795C10.8565 51.7102 11.1349 51.3892 11.3537 51.1165C11.5724 50.8409 11.7344 50.5824 11.8395 50.3409C11.9474 50.0966 12.0014 49.8409 12.0014 49.5739C12.0014 49.267 11.9276 49.0014 11.7798 48.777C11.6349 48.5526 11.4361 48.3793 11.1832 48.2571C10.9304 48.1349 10.6463 48.0739 10.331 48.0739C9.99574 48.0739 9.70312 48.1435 9.45312 48.2827C9.20597 48.419 9.0142 48.6108 8.87784 48.858C8.74432 49.1051 8.67756 49.3949 8.67756 49.7273H7.67188C7.67188 49.2159 7.78977 48.767 8.02557 48.3807C8.26136 47.9943 8.58239 47.6932 8.98864 47.4773C9.39773 47.2614 9.85653 47.1534 10.3651 47.1534C10.8764 47.1534 11.3295 47.2614 11.7244 47.4773C12.1193 47.6932 12.429 47.9844 12.6534 48.3509C12.8778 48.7173 12.9901 49.125 12.9901 49.5739C12.9901 49.8949 12.9318 50.2088 12.8153 50.5156C12.7017 50.8196 12.5028 51.1591 12.2188 51.5341C11.9375 51.9062 11.5469 52.3608 11.0469 52.8977L9.08665 54.9943V55.0625H13.1435V56H7.63778Z" fill="#6B7280"/>
<path d="M4.89347 89.2727V98H3.83665V90.3807H3.78551L1.65483 91.7955V90.7216L3.83665 89.2727H4.89347ZM10.25 98.1193C9.60795 98.1193 9.06108 97.9446 8.60938 97.5952C8.15767 97.2429 7.8125 96.733 7.57386 96.0653C7.33523 95.3949 7.21591 94.5852 7.21591 93.6364C7.21591 92.6932 7.33523 91.8878 7.57386 91.2202C7.81534 90.5497 8.16193 90.0384 8.61364 89.6861C9.06818 89.331 9.61364 89.1534 10.25 89.1534C10.8864 89.1534 11.4304 89.331 11.8821 89.6861C12.3366 90.0384 12.6832 90.5497 12.9219 91.2202C13.1634 91.8878 13.2841 92.6932 13.2841 93.6364C13.2841 94.5852 13.1648 95.3949 12.9261 96.0653C12.6875 96.733 12.3423 97.2429 11.8906 97.5952C11.4389 97.9446 10.892 98.1193 10.25 98.1193ZM10.25 97.1818C10.8864 97.1818 11.3807 96.875 11.733 96.2614C12.0852 95.6477 12.2614 94.7727 12.2614 93.6364C12.2614 92.8807 12.1804 92.2372 12.0185 91.706C11.8594 91.1747 11.6293 90.7699 11.3281 90.4915C11.0298 90.2131 10.6705 90.0739 10.25 90.0739C9.61932 90.0739 9.12642 90.3849 8.77131 91.0071C8.41619 91.6264 8.23864 92.5028 8.23864 93.6364C8.23864 94.392 8.31818 95.0341 8.47727 95.5625C8.63636 96.0909 8.86506 96.4929 9.16335 96.7685C9.46449 97.044 9.8267 97.1818 10.25 97.1818Z" fill="#6B7280"/>
<path d="M10.3043 140.119C9.71911 140.119 9.20206 140.016 8.7532 139.808C8.30717 139.598 7.95916 139.31 7.70916 138.943C7.45916 138.574 7.33558 138.153 7.33842 137.682C7.33558 137.312 7.40803 136.972 7.55575 136.659C7.70348 136.344 7.90518 136.081 8.16087 135.871C8.41939 135.658 8.70774 135.523 9.02592 135.466V135.415C8.60831 135.307 8.27592 135.072 8.02876 134.712C7.78161 134.348 7.65945 133.935 7.66229 133.472C7.65945 133.028 7.77166 132.632 7.99893 132.283C8.22621 131.933 8.53871 131.658 8.93643 131.456C9.337 131.254 9.79297 131.153 10.3043 131.153C10.81 131.153 11.2617 131.254 11.6594 131.456C12.0572 131.658 12.3697 131.933 12.5969 132.283C12.8271 132.632 12.9435 133.028 12.9464 133.472C12.9435 133.935 12.8171 134.348 12.5671 134.712C12.32 135.072 11.9918 135.307 11.5827 135.415V135.466C11.8981 135.523 12.1822 135.658 12.435 135.871C12.6879 136.081 12.8896 136.344 13.0401 136.659C13.1907 136.972 13.2674 137.312 13.2702 137.682C13.2674 138.153 13.1396 138.574 12.8867 138.943C12.6367 139.31 12.2887 139.598 11.8427 139.808C11.3995 140.016 10.8867 140.119 10.3043 140.119ZM10.3043 139.182C10.6992 139.182 11.0401 139.118 11.3271 138.99C11.614 138.862 11.8356 138.682 11.9918 138.449C12.1481 138.216 12.2276 137.943 12.2305 137.631C12.2276 137.301 12.1424 137.01 11.9748 136.757C11.8072 136.504 11.5785 136.305 11.2887 136.161C11.0018 136.016 10.6737 135.943 10.3043 135.943C9.93217 135.943 9.59979 136.016 9.30717 136.161C9.0174 136.305 8.78871 136.504 8.62109 136.757C8.45632 137.01 8.37536 137.301 8.3782 137.631C8.37536 137.943 8.45064 138.216 8.60405 138.449C8.7603 138.682 8.98331 138.862 9.27308 138.99C9.56286 139.118 9.90661 139.182 10.3043 139.182ZM10.3043 135.04C10.6168 135.04 10.8938 134.977 11.1353 134.852C11.3796 134.727 11.5714 134.553 11.7106 134.328C11.8498 134.104 11.9208 133.841 11.9237 133.54C11.9208 133.244 11.8512 132.987 11.7148 132.768C11.5785 132.547 11.3896 132.376 11.1481 132.257C10.9066 132.135 10.6254 132.074 10.3043 132.074C9.97763 132.074 9.69212 132.135 9.4478 132.257C9.20348 132.376 9.01456 132.547 8.88104 132.768C8.74751 132.987 8.68217 133.244 8.68501 133.54C8.68217 133.841 8.74893 134.104 8.8853 134.328C9.0245 134.553 9.21626 134.727 9.46058 134.852C9.7049 134.977 9.98615 135.04 10.3043 135.04Z" fill="#6B7280"/>
<path d="M10.3129 182.119C9.9549 182.114 9.59695 182.045 9.23899 181.915C8.88104 181.784 8.55433 181.564 8.25888 181.254C7.96342 180.942 7.72621 180.52 7.54723 179.989C7.36825 179.455 7.27876 178.784 7.27876 177.977C7.27876 177.205 7.35121 176.52 7.49609 175.923C7.64098 175.324 7.85121 174.82 8.12678 174.411C8.40234 173.999 8.73473 173.686 9.12393 173.473C9.51598 173.26 9.95774 173.153 10.4492 173.153C10.9379 173.153 11.3725 173.251 11.7532 173.447C12.1367 173.641 12.4492 173.911 12.6907 174.257C12.9322 174.604 13.0884 175.003 13.1594 175.455H12.1197C12.0231 175.062 11.8356 174.737 11.5572 174.479C11.2788 174.22 10.9094 174.091 10.4492 174.091C9.77308 174.091 9.24041 174.385 8.85121 174.973C8.46484 175.561 8.27024 176.386 8.2674 177.449H8.33558C8.49467 177.207 8.68359 177.001 8.90234 176.831C9.12393 176.658 9.36825 176.524 9.6353 176.43C9.90234 176.337 10.185 176.29 10.4833 176.29C10.9833 176.29 11.4407 176.415 11.8555 176.665C12.2702 176.912 12.6026 177.254 12.8526 177.692C13.1026 178.126 13.2276 178.625 13.2276 179.188C13.2276 179.727 13.1069 180.222 12.8654 180.67C12.6239 181.116 12.2844 181.472 11.8469 181.736C11.4123 181.997 10.9009 182.125 10.3129 182.119ZM10.3129 181.182C10.6708 181.182 10.9918 181.092 11.2759 180.913C11.5629 180.734 11.7887 180.494 11.9535 180.193C12.1211 179.892 12.2049 179.557 12.2049 179.188C12.2049 178.827 12.1239 178.499 11.962 178.203C11.8029 177.905 11.5827 177.668 11.3015 177.491C11.0231 177.315 10.7049 177.227 10.3469 177.227C10.0771 177.227 9.82564 177.281 9.59268 177.389C9.35973 177.494 9.15518 177.639 8.97905 177.824C8.80575 178.009 8.66939 178.22 8.56996 178.459C8.47053 178.695 8.42081 178.943 8.42081 179.205C8.42081 179.551 8.50178 179.875 8.66371 180.176C8.82848 180.477 9.05291 180.72 9.337 180.905C9.62393 181.089 9.94922 181.182 10.3129 181.182Z" fill="#6B7280"/>
<path d="M6.99964 222.21V221.341L10.8349 215.273H11.4656V216.619H11.0394L8.14169 221.205V221.273H13.3065V222.21H6.99964ZM11.1076 224V221.946V221.541V215.273H12.1133V224H11.1076Z" fill="#6B7280"/>
<path d="M7.63778 266V265.233L10.5185 262.08C10.8565 261.71 11.1349 261.389 11.3537 261.116C11.5724 260.841 11.7344 260.582 11.8395 260.341C11.9474 260.097 12.0014 259.841 12.0014 259.574C12.0014 259.267 11.9276 259.001 11.7798 258.777C11.6349 258.553 11.4361 258.379 11.1832 258.257C10.9304 258.135 10.6463 258.074 10.331 258.074C9.99574 258.074 9.70312 258.143 9.45312 258.283C9.20597 258.419 9.0142 258.611 8.87784 258.858C8.74432 259.105 8.67756 259.395 8.67756 259.727H7.67188C7.67188 259.216 7.78977 258.767 8.02557 258.381C8.26136 257.994 8.58239 257.693 8.98864 257.477C9.39773 257.261 9.85653 257.153 10.3651 257.153C10.8764 257.153 11.3295 257.261 11.7244 257.477C12.1193 257.693 12.429 257.984 12.6534 258.351C12.8778 258.717 12.9901 259.125 12.9901 259.574C12.9901 259.895 12.9318 260.209 12.8153 260.516C12.7017 260.82 12.5028 261.159 12.2188 261.534C11.9375 261.906 11.5469 262.361 11.0469 262.898L9.08665 264.994V265.062H13.1435V266H7.63778Z" fill="#6B7280"/>
<path d="M10.25 308.119C9.60795 308.119 9.06108 307.945 8.60938 307.595C8.15767 307.243 7.8125 306.733 7.57386 306.065C7.33523 305.395 7.21591 304.585 7.21591 303.636C7.21591 302.693 7.33523 301.888 7.57386 301.22C7.81534 300.55 8.16193 300.038 8.61364 299.686C9.06818 299.331 9.61364 299.153 10.25 299.153C10.8864 299.153 11.4304 299.331 11.8821 299.686C12.3366 300.038 12.6832 300.55 12.9219 301.22C13.1634 301.888 13.2841 302.693 13.2841 303.636C13.2841 304.585 13.1648 305.395 12.9261 306.065C12.6875 306.733 12.3423 307.243 11.8906 307.595C11.4389 307.945 10.892 308.119 10.25 308.119ZM10.25 307.182C10.8864 307.182 11.3807 306.875 11.733 306.261C12.0852 305.648 12.2614 304.773 12.2614 303.636C12.2614 302.881 12.1804 302.237 12.0185 301.706C11.8594 301.175 11.6293 300.77 11.3281 300.491C11.0298 300.213 10.6705 300.074 10.25 300.074C9.61932 300.074 9.12642 300.385 8.77131 301.007C8.41619 301.626 8.23864 302.503 8.23864 303.636C8.23864 304.392 8.31818 305.034 8.47727 305.562C8.63636 306.091 8.86506 306.493 9.16335 306.768C9.46449 307.044 9.8267 307.182 10.25 307.182Z" fill="#6B7280"/>
<line x1="34" y1="53.5" x2="679" y2="53.5" stroke="#F3F4F6"/>
<line x1="34" y1="95.5" x2="679" y2="95.5" stroke="#F3F4F6"/>
<line x1="34" y1="137.5" x2="679" y2="137.5" stroke="#F3F4F6"/>
<line x1="34" y1="179.5" x2="679" y2="179.5" stroke="#F3F4F6"/>
<line x1="34" y1="221.5" x2="679" y2="221.5" stroke="#F3F4F6"/>
<line x1="34" y1="263.5" x2="679" y2="263.5" stroke="#F3F4F6"/>
<line x1="34" y1="305.5" x2="679" y2="305.5" stroke="#F3F4F6"/>
<path d="M428 156V303" stroke="#E2E4E9" stroke-dasharray="4 4"/>
<path d="M34 203.311C44.2095 200.81 68.1117 193.81 82.0447 185.809C99.4609 175.808 103.665 163.307 161.318 175.808C218.972 188.309 209.964 182.309 229.182 185.809C244.556 188.61 274.824 206.311 288.036 214.812C298.246 222.646 323.229 231.813 341.486 205.811C364.307 173.308 399.14 155.807 418.358 165.808C437.575 175.808 475.411 201.31 488.022 202.31C500.634 203.31 505.439 202.31 554.084 179.308C593 160.907 653.576 181.309 679 193.81" stroke="#FF8CB0" stroke-width="4" stroke-linecap="round"/>
<path d="M34 243.311C44.2095 240.81 64.567 259.001 78.5 251C95.9162 240.999 107.846 190.999 165.5 203.5C223.154 216.001 218.282 204 237.5 207.5C252.874 210.3 274.824 246.311 288.036 254.812C298.246 262.646 319.243 259.502 337.5 233.5C360.321 200.997 412 207.5 432.5 207.5C454.164 207.5 483.388 183 496 184C508.612 185 549.355 236.002 598 213C636.916 194.598 653.576 221.309 679 233.81" stroke="#933C58" stroke-width="4" stroke-linecap="round"/>
<g filter="url(#filter0_f_1_2202)">
<path d="M34 253.311C44.2095 250.81 64.567 269.001 78.5 261C95.9162 250.999 107.846 200.999 165.5 213.5C223.154 226.001 218.282 214 237.5 217.5C252.874 220.3 274.824 256.311 288.036 264.812C298.246 272.646 319.243 269.502 337.5 243.5C360.321 210.997 413.282 207.499 432.5 217.5C451.718 227.501 483.388 193 496 194C508.612 195 549.355 246.002 598 223C636.916 204.598 653.576 231.309 679 243.81" stroke="#933C58" stroke-width="4" stroke-linecap="round"/>
</g>
<g filter="url(#filter1_f_1_2202)">
<path d="M34 210.311C44.2095 207.81 68.1117 200.81 82.0447 192.809C99.4609 182.808 103.665 170.307 161.318 182.808C218.972 195.309 209.964 189.309 229.182 192.809C244.556 195.61 274.824 213.311 288.036 221.812C298.246 229.646 323.229 238.813 341.486 212.811C364.307 180.308 399.14 162.807 418.358 172.808C437.575 182.808 475.411 208.31 488.022 209.31C500.634 210.31 505.439 209.31 554.084 186.308C593 167.907 653.576 188.309 679 200.81" stroke="#FF8CB0" stroke-width="4" stroke-linecap="round"/>
</g>
<g filter="url(#filter2_d_1_2202)">
<rect x="408.156" y="156" width="14.0434" height="14" rx="7" fill="#FF8CB0"/>
<rect x="409.156" y="157" width="12.0434" height="12" rx="6" stroke="white" stroke-width="2"/>
</g>
<g filter="url(#filter3_d_1_2202)">
<path d="M465 54C470.523 54 475 58.4772 475 64V124C475 129.523 470.523 134 465 134H424.393L414.866 150.5C414.481 151.167 413.519 151.167 413.134 150.5L403.607 134H363C357.477 134 353 129.523 353 124V64C353 58.4772 357.477 54 363 54H465Z" fill="white"/>
</g>
<circle cx="376" cy="80" r="7" fill="#933C58"/>
<path d="M398.308 76.026L394.416 85H392.806L396.74 76.194H391.56V74.836H398.308V76.026ZM410.325 78.168C410.325 78.6627 410.208 79.1293 409.975 79.568C409.741 80.0067 409.368 80.366 408.855 80.646C408.341 80.9167 407.683 81.052 406.881 81.052H405.117V85H403.521V75.27H406.881C407.627 75.27 408.257 75.4007 408.771 75.662C409.293 75.914 409.681 76.2593 409.933 76.698C410.194 77.1367 410.325 77.6267 410.325 78.168ZM406.881 79.75C407.487 79.75 407.94 79.6147 408.239 79.344C408.537 79.064 408.687 78.672 408.687 78.168C408.687 77.104 408.085 76.572 406.881 76.572H405.117V79.75H406.881ZM413.443 78.406C413.676 78.014 413.984 77.7107 414.367 77.496C414.759 77.272 415.221 77.16 415.753 77.16V78.812H415.347C414.722 78.812 414.246 78.9707 413.919 79.288C413.602 79.6053 413.443 80.156 413.443 80.94V85H411.847V77.286H413.443V78.406ZM420.566 85.126C419.838 85.126 419.18 84.9627 418.592 84.636C418.004 84.3 417.542 83.8333 417.206 83.236C416.87 82.6293 416.702 81.9293 416.702 81.136C416.702 80.352 416.875 79.6567 417.22 79.05C417.565 78.4433 418.037 77.9767 418.634 77.65C419.231 77.3233 419.899 77.16 420.636 77.16C421.373 77.16 422.041 77.3233 422.638 77.65C423.235 77.9767 423.707 78.4433 424.052 79.05C424.397 79.6567 424.57 80.352 424.57 81.136C424.57 81.92 424.393 82.6153 424.038 83.222C423.683 83.8287 423.198 84.3 422.582 84.636C421.975 84.9627 421.303 85.126 420.566 85.126ZM420.566 83.74C420.977 83.74 421.359 83.642 421.714 83.446C422.078 83.25 422.372 82.956 422.596 82.564C422.82 82.172 422.932 81.696 422.932 81.136C422.932 80.576 422.825 80.1047 422.61 79.722C422.395 79.33 422.111 79.036 421.756 78.84C421.401 78.644 421.019 78.546 420.608 78.546C420.197 78.546 419.815 78.644 419.46 78.84C419.115 79.036 418.839 79.33 418.634 79.722C418.429 80.1047 418.326 80.576 418.326 81.136C418.326 81.9667 418.536 82.6107 418.956 83.068C419.385 83.516 419.922 83.74 420.566 83.74ZM426.96 76.264C426.67 76.264 426.428 76.166 426.232 75.97C426.036 75.774 425.938 75.5313 425.938 75.242C425.938 74.9527 426.036 74.71 426.232 74.514C426.428 74.318 426.67 74.22 426.96 74.22C427.24 74.22 427.478 74.318 427.674 74.514C427.87 74.71 427.968 74.9527 427.968 75.242C427.968 75.5313 427.87 75.774 427.674 75.97C427.478 76.166 427.24 76.264 426.96 76.264ZM427.744 86.512C427.744 87.268 427.552 87.814 427.17 88.15C426.796 88.4953 426.25 88.668 425.532 88.668H424.706V87.324H425.252C425.578 87.324 425.807 87.2587 425.938 87.128C426.078 87.0067 426.148 86.8013 426.148 86.512V77.286H427.744V86.512ZM436.909 80.954C436.909 81.2433 436.89 81.5047 436.853 81.738H430.959C431.006 82.354 431.234 82.8487 431.645 83.222C432.056 83.5953 432.56 83.782 433.157 83.782C434.016 83.782 434.622 83.4227 434.977 82.704H436.699C436.466 83.4133 436.041 83.9967 435.425 84.454C434.818 84.902 434.062 85.126 433.157 85.126C432.42 85.126 431.757 84.9627 431.169 84.636C430.59 84.3 430.133 83.8333 429.797 83.236C429.47 82.6293 429.307 81.9293 429.307 81.136C429.307 80.3427 429.466 79.6473 429.783 79.05C430.11 78.4433 430.562 77.9767 431.141 77.65C431.729 77.3233 432.401 77.16 433.157 77.16C433.885 77.16 434.534 77.3187 435.103 77.636C435.672 77.9533 436.116 78.4013 436.433 78.98C436.75 79.5493 436.909 80.2073 436.909 80.954ZM435.243 80.45C435.234 79.862 435.024 79.3907 434.613 79.036C434.202 78.6813 433.694 78.504 433.087 78.504C432.536 78.504 432.065 78.6813 431.673 79.036C431.281 79.3813 431.048 79.8527 430.973 80.45H435.243ZM437.948 81.136C437.948 80.3427 438.106 79.6473 438.424 79.05C438.75 78.4433 439.198 77.9767 439.768 77.65C440.337 77.3233 440.99 77.16 441.728 77.16C442.661 77.16 443.431 77.384 444.038 77.832C444.654 78.2707 445.069 78.9007 445.284 79.722H443.562C443.422 79.3393 443.198 79.0407 442.89 78.826C442.582 78.6113 442.194 78.504 441.728 78.504C441.074 78.504 440.552 78.7373 440.16 79.204C439.777 79.6613 439.586 80.3053 439.586 81.136C439.586 81.9667 439.777 82.6153 440.16 83.082C440.552 83.5487 441.074 83.782 441.728 83.782C442.652 83.782 443.263 83.376 443.562 82.564H445.284C445.06 83.348 444.64 83.9733 444.024 84.44C443.408 84.8973 442.642 85.126 441.728 85.126C440.99 85.126 440.337 84.9627 439.768 84.636C439.198 84.3 438.75 83.8333 438.424 83.236C438.106 82.6293 437.948 81.9293 437.948 81.136ZM448.736 78.588V82.858C448.736 83.1473 448.802 83.3573 448.932 83.488C449.072 83.6093 449.306 83.67 449.632 83.67H450.612V85H449.352C448.634 85 448.083 84.832 447.7 84.496C447.318 84.16 447.126 83.614 447.126 82.858V78.588H446.216V77.286H447.126V75.368H448.736V77.286H450.612V78.588H448.736ZM454.883 85.126C454.277 85.126 453.731 85.0187 453.245 84.804C452.769 84.58 452.391 84.2813 452.111 83.908C451.831 83.5253 451.682 83.1007 451.663 82.634H453.315C453.343 82.9607 453.497 83.236 453.777 83.46C454.067 83.6747 454.426 83.782 454.855 83.782C455.303 83.782 455.649 83.698 455.891 83.53C456.143 83.3527 456.269 83.1287 456.269 82.858C456.269 82.5687 456.129 82.354 455.849 82.214C455.579 82.074 455.145 81.92 454.547 81.752C453.969 81.5933 453.497 81.4393 453.133 81.29C452.769 81.1407 452.452 80.912 452.181 80.604C451.92 80.296 451.789 79.89 451.789 79.386C451.789 78.9753 451.911 78.602 452.153 78.266C452.396 77.9207 452.741 77.65 453.189 77.454C453.647 77.258 454.169 77.16 454.757 77.16C455.635 77.16 456.339 77.384 456.871 77.832C457.413 78.2707 457.702 78.8727 457.739 79.638H456.143C456.115 79.2927 455.975 79.0173 455.723 78.812C455.471 78.6067 455.131 78.504 454.701 78.504C454.281 78.504 453.959 78.5833 453.735 78.742C453.511 78.9007 453.399 79.1107 453.399 79.372C453.399 79.5773 453.474 79.75 453.623 79.89C453.773 80.03 453.955 80.142 454.169 80.226C454.384 80.3007 454.701 80.3987 455.121 80.52C455.681 80.6693 456.139 80.8233 456.493 80.982C456.857 81.1313 457.17 81.3553 457.431 81.654C457.693 81.9527 457.828 82.3493 457.837 82.844C457.837 83.2827 457.716 83.6747 457.473 84.02C457.231 84.3653 456.885 84.636 456.437 84.832C455.999 85.028 455.481 85.126 454.883 85.126Z" fill="#23262F"/>
<circle cx="376" cy="108" r="7" fill="#FF8CB0"/>
<path d="M398.42 104.166H393.73V106.952C393.926 106.691 394.215 106.471 394.598 106.294C394.99 106.117 395.405 106.028 395.844 106.028C396.628 106.028 397.263 106.196 397.748 106.532C398.243 106.868 398.593 107.293 398.798 107.806C399.013 108.319 399.12 108.861 399.12 109.43C399.12 110.121 398.985 110.737 398.714 111.278C398.453 111.81 398.056 112.23 397.524 112.538C397.001 112.846 396.357 113 395.592 113C394.575 113 393.758 112.748 393.142 112.244C392.526 111.74 392.157 111.073 392.036 110.242H393.59C393.693 110.681 393.921 111.031 394.276 111.292C394.631 111.544 395.074 111.67 395.606 111.67C396.269 111.67 396.763 111.469 397.09 111.068C397.426 110.667 397.594 110.135 397.594 109.472C397.594 108.8 397.426 108.287 397.09 107.932C396.754 107.568 396.259 107.386 395.606 107.386C395.149 107.386 394.761 107.503 394.444 107.736C394.136 107.96 393.912 108.268 393.772 108.66H392.26V102.766H398.42V104.166ZM411.432 106.168C411.432 106.663 411.315 107.129 411.082 107.568C410.849 108.007 410.475 108.366 409.962 108.646C409.449 108.917 408.791 109.052 407.988 109.052H406.224V113H404.628V103.27H407.988C408.735 103.27 409.365 103.401 409.878 103.662C410.401 103.914 410.788 104.259 411.04 104.698C411.301 105.137 411.432 105.627 411.432 106.168ZM407.988 107.75C408.595 107.75 409.047 107.615 409.346 107.344C409.645 107.064 409.794 106.672 409.794 106.168C409.794 105.104 409.192 104.572 407.988 104.572H406.224V107.75H407.988ZM414.55 106.406C414.784 106.014 415.092 105.711 415.474 105.496C415.866 105.272 416.328 105.16 416.86 105.16V106.812H416.454C415.829 106.812 415.353 106.971 415.026 107.288C414.709 107.605 414.55 108.156 414.55 108.94V113H412.954V105.286H414.55V106.406ZM421.673 113.126C420.945 113.126 420.287 112.963 419.699 112.636C419.111 112.3 418.649 111.833 418.313 111.236C417.977 110.629 417.809 109.929 417.809 109.136C417.809 108.352 417.982 107.657 418.327 107.05C418.673 106.443 419.144 105.977 419.741 105.65C420.339 105.323 421.006 105.16 421.743 105.16C422.481 105.16 423.148 105.323 423.745 105.65C424.343 105.977 424.814 106.443 425.159 107.05C425.505 107.657 425.677 108.352 425.677 109.136C425.677 109.92 425.5 110.615 425.145 111.222C424.791 111.829 424.305 112.3 423.689 112.636C423.083 112.963 422.411 113.126 421.673 113.126ZM421.673 111.74C422.084 111.74 422.467 111.642 422.821 111.446C423.185 111.25 423.479 110.956 423.703 110.564C423.927 110.172 424.039 109.696 424.039 109.136C424.039 108.576 423.932 108.105 423.717 107.722C423.503 107.33 423.218 107.036 422.863 106.84C422.509 106.644 422.126 106.546 421.715 106.546C421.305 106.546 420.922 106.644 420.567 106.84C420.222 107.036 419.947 107.33 419.741 107.722C419.536 108.105 419.433 108.576 419.433 109.136C419.433 109.967 419.643 110.611 420.063 111.068C420.493 111.516 421.029 111.74 421.673 111.74ZM428.067 104.264C427.778 104.264 427.535 104.166 427.339 103.97C427.143 103.774 427.045 103.531 427.045 103.242C427.045 102.953 427.143 102.71 427.339 102.514C427.535 102.318 427.778 102.22 428.067 102.22C428.347 102.22 428.585 102.318 428.781 102.514C428.977 102.71 429.075 102.953 429.075 103.242C429.075 103.531 428.977 103.774 428.781 103.97C428.585 104.166 428.347 104.264 428.067 104.264ZM428.851 114.512C428.851 115.268 428.66 115.814 428.277 116.15C427.904 116.495 427.358 116.668 426.639 116.668H425.813V115.324H426.359C426.686 115.324 426.914 115.259 427.045 115.128C427.185 115.007 427.255 114.801 427.255 114.512V105.286H428.851V114.512ZM438.016 108.954C438.016 109.243 437.998 109.505 437.96 109.738H432.066C432.113 110.354 432.342 110.849 432.752 111.222C433.163 111.595 433.667 111.782 434.264 111.782C435.123 111.782 435.73 111.423 436.084 110.704H437.806C437.573 111.413 437.148 111.997 436.532 112.454C435.926 112.902 435.17 113.126 434.264 113.126C433.527 113.126 432.864 112.963 432.276 112.636C431.698 112.3 431.24 111.833 430.904 111.236C430.578 110.629 430.414 109.929 430.414 109.136C430.414 108.343 430.573 107.647 430.89 107.05C431.217 106.443 431.67 105.977 432.248 105.65C432.836 105.323 433.508 105.16 434.264 105.16C434.992 105.16 435.641 105.319 436.21 105.636C436.78 105.953 437.223 106.401 437.54 106.98C437.858 107.549 438.016 108.207 438.016 108.954ZM436.35 108.45C436.341 107.862 436.131 107.391 435.72 107.036C435.31 106.681 434.801 106.504 434.194 106.504C433.644 106.504 433.172 106.681 432.78 107.036C432.388 107.381 432.155 107.853 432.08 108.45H436.35ZM439.055 109.136C439.055 108.343 439.214 107.647 439.531 107.05C439.858 106.443 440.306 105.977 440.875 105.65C441.444 105.323 442.098 105.16 442.835 105.16C443.768 105.16 444.538 105.384 445.145 105.832C445.761 106.271 446.176 106.901 446.391 107.722H444.669C444.529 107.339 444.305 107.041 443.997 106.826C443.689 106.611 443.302 106.504 442.835 106.504C442.182 106.504 441.659 106.737 441.267 107.204C440.884 107.661 440.693 108.305 440.693 109.136C440.693 109.967 440.884 110.615 441.267 111.082C441.659 111.549 442.182 111.782 442.835 111.782C443.759 111.782 444.37 111.376 444.669 110.564H446.391C446.167 111.348 445.747 111.973 445.131 112.44C444.515 112.897 443.75 113.126 442.835 113.126C442.098 113.126 441.444 112.963 440.875 112.636C440.306 112.3 439.858 111.833 439.531 111.236C439.214 110.629 439.055 109.929 439.055 109.136ZM449.844 106.588V110.858C449.844 111.147 449.909 111.357 450.04 111.488C450.18 111.609 450.413 111.67 450.74 111.67H451.72V113H450.46C449.741 113 449.19 112.832 448.808 112.496C448.425 112.16 448.234 111.614 448.234 110.858V106.588H447.324V105.286H448.234V103.368H449.844V105.286H451.72V106.588H449.844ZM455.991 113.126C455.384 113.126 454.838 113.019 454.353 112.804C453.877 112.58 453.499 112.281 453.219 111.908C452.939 111.525 452.789 111.101 452.771 110.634H454.423C454.451 110.961 454.605 111.236 454.885 111.46C455.174 111.675 455.533 111.782 455.963 111.782C456.411 111.782 456.756 111.698 456.999 111.53C457.251 111.353 457.377 111.129 457.377 110.858C457.377 110.569 457.237 110.354 456.957 110.214C456.686 110.074 456.252 109.92 455.655 109.752C455.076 109.593 454.605 109.439 454.241 109.29C453.877 109.141 453.559 108.912 453.289 108.604C453.027 108.296 452.897 107.89 452.897 107.386C452.897 106.975 453.018 106.602 453.261 106.266C453.503 105.921 453.849 105.65 454.297 105.454C454.754 105.258 455.277 105.16 455.865 105.16C456.742 105.16 457.447 105.384 457.979 105.832C458.52 106.271 458.809 106.873 458.847 107.638H457.251C457.223 107.293 457.083 107.017 456.831 106.812C456.579 106.607 456.238 106.504 455.809 106.504C455.389 106.504 455.067 106.583 454.843 106.742C454.619 106.901 454.507 107.111 454.507 107.372C454.507 107.577 454.581 107.75 454.731 107.89C454.88 108.03 455.062 108.142 455.277 108.226C455.491 108.301 455.809 108.399 456.229 108.52C456.789 108.669 457.246 108.823 457.601 108.982C457.965 109.131 458.277 109.355 458.539 109.654C458.8 109.953 458.935 110.349 458.945 110.844C458.945 111.283 458.823 111.675 458.581 112.02C458.338 112.365 457.993 112.636 457.545 112.832C457.106 113.028 456.588 113.126 455.991 113.126Z" fill="#23262F"/>
<path d="M38.716 331.084C37.94 331.084 37.232 330.904 36.592 330.544C35.952 330.176 35.444 329.668 35.068 329.02C34.7 328.364 34.516 327.628 34.516 326.812C34.516 325.996 34.7 325.264 35.068 324.616C35.444 323.96 35.952 323.452 36.592 323.092C37.232 322.724 37.94 322.54 38.716 322.54C39.5 322.54 40.212 322.724 40.852 323.092C41.492 323.452 41.996 323.956 42.364 324.604C42.732 325.252 42.916 325.988 42.916 326.812C42.916 327.636 42.732 328.372 42.364 329.02C41.996 329.668 41.492 330.176 40.852 330.544C40.212 330.904 39.5 331.084 38.716 331.084ZM38.716 330.136C39.3 330.136 39.824 330 40.288 329.728C40.76 329.456 41.128 329.068 41.392 328.564C41.664 328.06 41.8 327.476 41.8 326.812C41.8 326.14 41.664 325.556 41.392 325.06C41.128 324.556 40.764 324.168 40.3 323.896C39.836 323.624 39.308 323.488 38.716 323.488C38.124 323.488 37.596 323.624 37.132 323.896C36.668 324.168 36.3 324.556 36.028 325.06C35.764 325.556 35.632 326.14 35.632 326.812C35.632 327.476 35.764 328.06 36.028 328.564C36.3 329.068 36.668 329.456 37.132 329.728C37.604 330 38.132 330.136 38.716 330.136ZM43.9496 327.7C43.9496 327.02 44.0856 326.428 44.3576 325.924C44.6296 325.412 45.0056 325.016 45.4856 324.736C45.9736 324.456 46.5296 324.316 47.1536 324.316C47.9616 324.316 48.6256 324.512 49.1456 324.904C49.6736 325.296 50.0216 325.84 50.1896 326.536H49.0136C48.9016 326.136 48.6816 325.82 48.3536 325.588C48.0336 325.356 47.6336 325.24 47.1536 325.24C46.5296 325.24 46.0256 325.456 45.6416 325.888C45.2576 326.312 45.0656 326.916 45.0656 327.7C45.0656 328.492 45.2576 329.104 45.6416 329.536C46.0256 329.968 46.5296 330.184 47.1536 330.184C47.6336 330.184 48.0336 330.072 48.3536 329.848C48.6736 329.624 48.8936 329.304 49.0136 328.888H50.1896C50.0136 329.56 49.6616 330.1 49.1336 330.508C48.6056 330.908 47.9456 331.108 47.1536 331.108C46.5296 331.108 45.9736 330.968 45.4856 330.688C45.0056 330.408 44.6296 330.012 44.3576 329.5C44.0856 328.988 43.9496 328.388 43.9496 327.7ZM52.9787 325.324V329.2C52.9787 329.52 53.0467 329.748 53.1827 329.884C53.3187 330.012 53.5547 330.076 53.8907 330.076H54.6947V331H53.7107C53.1027 331 52.6467 330.86 52.3427 330.58C52.0387 330.3 51.8867 329.84 51.8867 329.2V325.324H51.0347V324.424H51.8867V322.768H52.9787V324.424H54.6947V325.324H52.9787ZM58.905 330.124C59.921 329.308 60.717 328.64 61.293 328.12C61.869 327.592 62.353 327.044 62.745 326.476C63.145 325.9 63.345 325.336 63.345 324.784C63.345 324.264 63.217 323.856 62.961 323.56C62.713 323.256 62.309 323.104 61.749 323.104C61.205 323.104 60.781 323.276 60.477 323.62C60.181 323.956 60.021 324.408 59.997 324.976H58.941C58.973 324.08 59.245 323.388 59.757 322.9C60.269 322.412 60.929 322.168 61.737 322.168C62.561 322.168 63.213 322.396 63.693 322.852C64.181 323.308 64.425 323.936 64.425 324.736C64.425 325.4 64.225 326.048 63.825 326.68C63.433 327.304 62.985 327.856 62.481 328.336C61.977 328.808 61.333 329.36 60.549 329.992H64.677V330.904H58.905V330.124ZM65.9393 326.572C65.9393 325.196 66.1633 324.124 66.6113 323.356C67.0593 322.58 67.8433 322.192 68.9633 322.192C70.0753 322.192 70.8553 322.58 71.3033 323.356C71.7513 324.124 71.9753 325.196 71.9753 326.572C71.9753 327.972 71.7513 329.06 71.3033 329.836C70.8553 330.612 70.0753 331 68.9633 331C67.8433 331 67.0593 330.612 66.6113 329.836C66.1633 329.06 65.9393 327.972 65.9393 326.572ZM70.8953 326.572C70.8953 325.876 70.8473 325.288 70.7513 324.808C70.6633 324.32 70.4753 323.928 70.1873 323.632C69.9073 323.336 69.4993 323.188 68.9633 323.188C68.4193 323.188 68.0033 323.336 67.7153 323.632C67.4353 323.928 67.2473 324.32 67.1513 324.808C67.0633 325.288 67.0193 325.876 67.0193 326.572C67.0193 327.292 67.0633 327.896 67.1513 328.384C67.2473 328.872 67.4353 329.264 67.7153 329.56C68.0033 329.856 68.4193 330.004 68.9633 330.004C69.4993 330.004 69.9073 329.856 70.1873 329.56C70.4753 329.264 70.6633 328.872 70.7513 328.384C70.8473 327.896 70.8953 327.292 70.8953 326.572ZM73.3425 330.124C74.3585 329.308 75.1545 328.64 75.7305 328.12C76.3065 327.592 76.7905 327.044 77.1825 326.476C77.5825 325.9 77.7825 325.336 77.7825 324.784C77.7825 324.264 77.6545 323.856 77.3985 323.56C77.1505 323.256 76.7465 323.104 76.1865 323.104C75.6425 323.104 75.2185 323.276 74.9145 323.62C74.6185 323.956 74.4585 324.408 74.4345 324.976H73.3785C73.4105 324.08 73.6825 323.388 74.1945 322.9C74.7065 322.412 75.3665 322.168 76.1745 322.168C76.9985 322.168 77.6505 322.396 78.1305 322.852C78.6185 323.308 78.8625 323.936 78.8625 324.736C78.8625 325.4 78.6625 326.048 78.2625 326.68C77.8705 327.304 77.4225 327.856 76.9185 328.336C76.4145 328.808 75.7705 329.36 74.9865 329.992H79.1145V330.904H73.3425V330.124ZM80.1128 329.068V328.24L84.3248 322.408H85.6328V328.12H86.8328V329.068H85.6328V331H84.5528V329.068H80.1128ZM84.6008 323.548L81.3728 328.12H84.6008V323.548Z" fill="#6B7280"/>
<path d="M161.5 331H160.408L156.016 324.34V331H154.924V322.624H156.016L160.408 329.272V322.624H161.5V331ZM166.23 331.108C165.614 331.108 165.054 330.968 164.55 330.688C164.054 330.408 163.662 330.012 163.374 329.5C163.094 328.98 162.954 328.38 162.954 327.7C162.954 327.028 163.098 326.436 163.386 325.924C163.682 325.404 164.082 325.008 164.586 324.736C165.09 324.456 165.654 324.316 166.278 324.316C166.902 324.316 167.466 324.456 167.97 324.736C168.474 325.008 168.87 325.4 169.158 325.912C169.454 326.424 169.602 327.02 169.602 327.7C169.602 328.38 169.45 328.98 169.146 329.5C168.85 330.012 168.446 330.408 167.934 330.688C167.422 330.968 166.854 331.108 166.23 331.108ZM166.23 330.148C166.622 330.148 166.99 330.056 167.334 329.872C167.678 329.688 167.954 329.412 168.162 329.044C168.378 328.676 168.486 328.228 168.486 327.7C168.486 327.172 168.382 326.724 168.174 326.356C167.966 325.988 167.694 325.716 167.358 325.54C167.022 325.356 166.658 325.264 166.266 325.264C165.866 325.264 165.498 325.356 165.162 325.54C164.834 325.716 164.57 325.988 164.37 326.356C164.17 326.724 164.07 327.172 164.07 327.7C164.07 328.236 164.166 328.688 164.358 329.056C164.558 329.424 164.822 329.7 165.15 329.884C165.478 330.06 165.838 330.148 166.23 330.148ZM173.485 329.992L175.525 324.424H176.689L174.109 331H172.837L170.257 324.424H171.433L173.485 329.992ZM180.651 330.124C181.667 329.308 182.463 328.64 183.039 328.12C183.615 327.592 184.099 327.044 184.491 326.476C184.891 325.9 185.091 325.336 185.091 324.784C185.091 324.264 184.963 323.856 184.707 323.56C184.459 323.256 184.055 323.104 183.495 323.104C182.951 323.104 182.527 323.276 182.223 323.62C181.927 323.956 181.767 324.408 181.743 324.976H180.687C180.719 324.08 180.991 323.388 181.503 322.9C182.015 322.412 182.675 322.168 183.483 322.168C184.307 322.168 184.959 322.396 185.439 322.852C185.927 323.308 186.171 323.936 186.171 324.736C186.171 325.4 185.971 326.048 185.571 326.68C185.179 327.304 184.731 327.856 184.227 328.336C183.723 328.808 183.079 329.36 182.295 329.992H186.423V330.904H180.651V330.124ZM187.685 326.572C187.685 325.196 187.909 324.124 188.357 323.356C188.805 322.58 189.589 322.192 190.709 322.192C191.821 322.192 192.601 322.58 193.049 323.356C193.497 324.124 193.721 325.196 193.721 326.572C193.721 327.972 193.497 329.06 193.049 329.836C192.601 330.612 191.821 331 190.709 331C189.589 331 188.805 330.612 188.357 329.836C187.909 329.06 187.685 327.972 187.685 326.572ZM192.641 326.572C192.641 325.876 192.593 325.288 192.497 324.808C192.409 324.32 192.221 323.928 191.933 323.632C191.653 323.336 191.245 323.188 190.709 323.188C190.165 323.188 189.749 323.336 189.461 323.632C189.181 323.928 188.993 324.32 188.897 324.808C188.809 325.288 188.765 325.876 188.765 326.572C188.765 327.292 188.809 327.896 188.897 328.384C188.993 328.872 189.181 329.264 189.461 329.56C189.749 329.856 190.165 330.004 190.709 330.004C191.245 330.004 191.653 329.856 191.933 329.56C192.221 329.264 192.409 328.872 192.497 328.384C192.593 327.896 192.641 327.292 192.641 326.572ZM195.089 330.124C196.105 329.308 196.901 328.64 197.477 328.12C198.053 327.592 198.537 327.044 198.929 326.476C199.329 325.9 199.529 325.336 199.529 324.784C199.529 324.264 199.401 323.856 199.145 323.56C198.897 323.256 198.493 323.104 197.933 323.104C197.389 323.104 196.965 323.276 196.661 323.62C196.365 323.956 196.205 324.408 196.181 324.976H195.125C195.157 324.08 195.429 323.388 195.941 322.9C196.453 322.412 197.113 322.168 197.921 322.168C198.745 322.168 199.397 322.396 199.877 322.852C200.365 323.308 200.609 323.936 200.609 324.736C200.609 325.4 200.409 326.048 200.009 326.68C199.617 327.304 199.169 327.856 198.665 328.336C198.161 328.808 197.517 329.36 196.733 329.992H200.861V330.904H195.089V330.124ZM201.859 329.068V328.24L206.071 322.408H207.379V328.12H208.579V329.068H207.379V331H206.299V329.068H201.859ZM206.347 323.548L203.119 328.12H206.347V323.548Z" fill="#6B7280"/>
<path d="M278.528 322.636C279.44 322.636 280.228 322.808 280.892 323.152C281.564 323.488 282.076 323.972 282.428 324.604C282.788 325.236 282.968 325.98 282.968 326.836C282.968 327.692 282.788 328.436 282.428 329.068C282.076 329.692 281.564 330.172 280.892 330.508C280.228 330.836 279.44 331 278.528 331H275.924V322.636H278.528ZM278.528 330.1C279.608 330.1 280.432 329.816 281 329.248C281.568 328.672 281.852 327.868 281.852 326.836C281.852 325.796 281.564 324.984 280.988 324.4C280.42 323.816 279.6 323.524 278.528 323.524H277.016V330.1H278.528ZM290.408 327.46C290.408 327.668 290.396 327.888 290.372 328.12H285.116C285.156 328.768 285.376 329.276 285.776 329.644C286.184 330.004 286.676 330.184 287.252 330.184C287.724 330.184 288.116 330.076 288.428 329.86C288.748 329.636 288.972 329.34 289.1 328.972H290.276C290.1 329.604 289.748 330.12 289.22 330.52C288.692 330.912 288.036 331.108 287.252 331.108C286.628 331.108 286.068 330.968 285.572 330.688C285.084 330.408 284.7 330.012 284.42 329.5C284.14 328.98 284 328.38 284 327.7C284 327.02 284.136 326.424 284.408 325.912C284.68 325.4 285.06 325.008 285.548 324.736C286.044 324.456 286.612 324.316 287.252 324.316C287.876 324.316 288.428 324.452 288.908 324.724C289.388 324.996 289.756 325.372 290.012 325.852C290.276 326.324 290.408 326.86 290.408 327.46ZM289.28 327.232C289.28 326.816 289.188 326.46 289.004 326.164C288.82 325.86 288.568 325.632 288.248 325.48C287.936 325.32 287.588 325.24 287.204 325.24C286.652 325.24 286.18 325.416 285.788 325.768C285.404 326.12 285.184 326.608 285.128 327.232H289.28ZM291.442 327.7C291.442 327.02 291.578 326.428 291.85 325.924C292.122 325.412 292.498 325.016 292.978 324.736C293.466 324.456 294.022 324.316 294.646 324.316C295.454 324.316 296.118 324.512 296.638 324.904C297.166 325.296 297.514 325.84 297.682 326.536H296.506C296.394 326.136 296.174 325.82 295.846 325.588C295.526 325.356 295.126 325.24 294.646 325.24C294.022 325.24 293.518 325.456 293.134 325.888C292.75 326.312 292.558 326.916 292.558 327.7C292.558 328.492 292.75 329.104 293.134 329.536C293.518 329.968 294.022 330.184 294.646 330.184C295.126 330.184 295.526 330.072 295.846 329.848C296.166 329.624 296.386 329.304 296.506 328.888H297.682C297.506 329.56 297.154 330.1 296.626 330.508C296.098 330.908 295.438 331.108 294.646 331.108C294.022 331.108 293.466 330.968 292.978 330.688C292.498 330.408 292.122 330.012 291.85 329.5C291.578 328.988 291.442 328.388 291.442 327.7ZM302.026 330.124C303.042 329.308 303.838 328.64 304.414 328.12C304.99 327.592 305.474 327.044 305.866 326.476C306.266 325.9 306.466 325.336 306.466 324.784C306.466 324.264 306.338 323.856 306.082 323.56C305.834 323.256 305.43 323.104 304.87 323.104C304.326 323.104 303.902 323.276 303.598 323.62C303.302 323.956 303.142 324.408 303.118 324.976H302.062C302.094 324.08 302.366 323.388 302.878 322.9C303.39 322.412 304.05 322.168 304.858 322.168C305.682 322.168 306.334 322.396 306.814 322.852C307.302 323.308 307.546 323.936 307.546 324.736C307.546 325.4 307.346 326.048 306.946 326.68C306.554 327.304 306.106 327.856 305.602 328.336C305.098 328.808 304.454 329.36 303.67 329.992H307.798V330.904H302.026V330.124ZM309.06 326.572C309.06 325.196 309.284 324.124 309.732 323.356C310.18 322.58 310.964 322.192 312.084 322.192C313.196 322.192 313.976 322.58 314.424 323.356C314.872 324.124 315.096 325.196 315.096 326.572C315.096 327.972 314.872 329.06 314.424 329.836C313.976 330.612 313.196 331 312.084 331C310.964 331 310.18 330.612 309.732 329.836C309.284 329.06 309.06 327.972 309.06 326.572ZM314.016 326.572C314.016 325.876 313.968 325.288 313.872 324.808C313.784 324.32 313.596 323.928 313.308 323.632C313.028 323.336 312.62 323.188 312.084 323.188C311.54 323.188 311.124 323.336 310.836 323.632C310.556 323.928 310.368 324.32 310.272 324.808C310.184 325.288 310.14 325.876 310.14 326.572C310.14 327.292 310.184 327.896 310.272 328.384C310.368 328.872 310.556 329.264 310.836 329.56C311.124 329.856 311.54 330.004 312.084 330.004C312.62 330.004 313.028 329.856 313.308 329.56C313.596 329.264 313.784 328.872 313.872 328.384C313.968 327.896 314.016 327.292 314.016 326.572ZM316.464 330.124C317.48 329.308 318.276 328.64 318.852 328.12C319.428 327.592 319.912 327.044 320.304 326.476C320.704 325.9 320.904 325.336 320.904 324.784C320.904 324.264 320.776 323.856 320.52 323.56C320.272 323.256 319.868 323.104 319.308 323.104C318.764 323.104 318.34 323.276 318.036 323.62C317.74 323.956 317.58 324.408 317.556 324.976H316.5C316.532 324.08 316.804 323.388 317.316 322.9C317.828 322.412 318.488 322.168 319.296 322.168C320.12 322.168 320.772 322.396 321.252 322.852C321.74 323.308 321.984 323.936 321.984 324.736C321.984 325.4 321.784 326.048 321.384 326.68C320.992 327.304 320.544 327.856 320.04 328.336C319.536 328.808 318.892 329.36 318.108 329.992H322.236V330.904H316.464V330.124ZM323.234 329.068V328.24L327.446 322.408H328.754V328.12H329.954V329.068H328.754V331H327.674V329.068H323.234ZM327.722 323.548L324.494 328.12H327.722V323.548Z" fill="#6B7280"/>
<path d="M402.136 322.636V328.816C402.136 329.504 401.924 330.056 401.5 330.472C401.076 330.88 400.516 331.084 399.82 331.084C399.116 331.084 398.552 330.876 398.128 330.46C397.704 330.036 397.492 329.46 397.492 328.732H398.584C398.592 329.14 398.696 329.472 398.896 329.728C399.104 329.984 399.412 330.112 399.82 330.112C400.228 330.112 400.532 329.992 400.732 329.752C400.932 329.504 401.032 329.192 401.032 328.816V322.636H402.136ZM403.879 327.688C403.879 327.016 404.015 326.428 404.287 325.924C404.559 325.412 404.931 325.016 405.403 324.736C405.883 324.456 406.415 324.316 406.999 324.316C407.575 324.316 408.075 324.44 408.499 324.688C408.923 324.936 409.239 325.248 409.447 325.624V324.424H410.551V331H409.447V329.776C409.231 330.16 408.907 330.48 408.475 330.736C408.051 330.984 407.555 331.108 406.987 331.108C406.403 331.108 405.875 330.964 405.403 330.676C404.931 330.388 404.559 329.984 404.287 329.464C404.015 328.944 403.879 328.352 403.879 327.688ZM409.447 327.7C409.447 327.204 409.347 326.772 409.147 326.404C408.947 326.036 408.675 325.756 408.331 325.564C407.995 325.364 407.623 325.264 407.215 325.264C406.807 325.264 406.435 325.36 406.099 325.552C405.763 325.744 405.495 326.024 405.295 326.392C405.095 326.76 404.995 327.192 404.995 327.688C404.995 328.192 405.095 328.632 405.295 329.008C405.495 329.376 405.763 329.66 406.099 329.86C406.435 330.052 406.807 330.148 407.215 330.148C407.623 330.148 407.995 330.052 408.331 329.86C408.675 329.66 408.947 329.376 409.147 329.008C409.347 328.632 409.447 328.196 409.447 327.7ZM415.601 324.304C416.401 324.304 417.049 324.548 417.545 325.036C418.041 325.516 418.289 326.212 418.289 327.124V331H417.209V327.28C417.209 326.624 417.045 326.124 416.717 325.78C416.389 325.428 415.941 325.252 415.373 325.252C414.797 325.252 414.337 325.432 413.993 325.792C413.657 326.152 413.489 326.676 413.489 327.364V331H412.397V324.424H413.489V325.36C413.705 325.024 413.997 324.764 414.365 324.58C414.741 324.396 415.153 324.304 415.601 324.304ZM422.96 330.124C423.976 329.308 424.772 328.64 425.348 328.12C425.924 327.592 426.408 327.044 426.8 326.476C427.2 325.9 427.4 325.336 427.4 324.784C427.4 324.264 427.272 323.856 427.016 323.56C426.768 323.256 426.364 323.104 425.804 323.104C425.26 323.104 424.836 323.276 424.532 323.62C424.236 323.956 424.076 324.408 424.052 324.976H422.996C423.028 324.08 423.3 323.388 423.812 322.9C424.324 322.412 424.984 322.168 425.792 322.168C426.616 322.168 427.268 322.396 427.748 322.852C428.236 323.308 428.48 323.936 428.48 324.736C428.48 325.4 428.28 326.048 427.88 326.68C427.488 327.304 427.04 327.856 426.536 328.336C426.032 328.808 425.388 329.36 424.604 329.992H428.732V330.904H422.96V330.124ZM429.994 326.572C429.994 325.196 430.218 324.124 430.666 323.356C431.114 322.58 431.898 322.192 433.018 322.192C434.13 322.192 434.91 322.58 435.358 323.356C435.806 324.124 436.03 325.196 436.03 326.572C436.03 327.972 435.806 329.06 435.358 329.836C434.91 330.612 434.13 331 433.018 331C431.898 331 431.114 330.612 430.666 329.836C430.218 329.06 429.994 327.972 429.994 326.572ZM434.95 326.572C434.95 325.876 434.902 325.288 434.806 324.808C434.718 324.32 434.53 323.928 434.242 323.632C433.962 323.336 433.554 323.188 433.018 323.188C432.474 323.188 432.058 323.336 431.77 323.632C431.49 323.928 431.302 324.32 431.206 324.808C431.118 325.288 431.074 325.876 431.074 326.572C431.074 327.292 431.118 327.896 431.206 328.384C431.302 328.872 431.49 329.264 431.77 329.56C432.058 329.856 432.474 330.004 433.018 330.004C433.554 330.004 433.962 329.856 434.242 329.56C434.53 329.264 434.718 328.872 434.806 328.384C434.902 327.896 434.95 327.292 434.95 326.572ZM437.397 330.124C438.413 329.308 439.209 328.64 439.785 328.12C440.361 327.592 440.845 327.044 441.237 326.476C441.637 325.9 441.837 325.336 441.837 324.784C441.837 324.264 441.709 323.856 441.453 323.56C441.205 323.256 440.801 323.104 440.241 323.104C439.697 323.104 439.273 323.276 438.969 323.62C438.673 323.956 438.513 324.408 438.489 324.976H437.433C437.465 324.08 437.737 323.388 438.249 322.9C438.761 322.412 439.421 322.168 440.229 322.168C441.053 322.168 441.705 322.396 442.185 322.852C442.673 323.308 442.917 323.936 442.917 324.736C442.917 325.4 442.717 326.048 442.317 326.68C441.925 327.304 441.477 327.856 440.973 328.336C440.469 328.808 439.825 329.36 439.041 329.992H443.169V330.904H437.397V330.124ZM449.964 323.272H445.752V326.008C445.936 325.752 446.208 325.544 446.568 325.384C446.928 325.216 447.316 325.132 447.732 325.132C448.396 325.132 448.936 325.272 449.352 325.552C449.768 325.824 450.064 326.18 450.24 326.62C450.424 327.052 450.516 327.512 450.516 328C450.516 328.576 450.408 329.092 450.192 329.548C449.976 330.004 449.644 330.364 449.196 330.628C448.756 330.892 448.208 331.024 447.552 331.024C446.712 331.024 446.032 330.808 445.512 330.376C444.992 329.944 444.676 329.368 444.564 328.648H445.632C445.736 329.104 445.956 329.46 446.292 329.716C446.628 329.972 447.052 330.1 447.564 330.1C448.196 330.1 448.672 329.912 448.992 329.536C449.312 329.152 449.472 328.648 449.472 328.024C449.472 327.4 449.312 326.92 448.992 326.584C448.672 326.24 448.2 326.068 447.576 326.068C447.152 326.068 446.78 326.172 446.46 326.38C446.148 326.58 445.92 326.856 445.776 327.208H444.744V322.312H449.964V323.272Z" fill="#6B7280"/>
<path d="M523.652 322.636V323.524H520.016V326.344H522.968V327.232H520.016V331H518.924V322.636H523.652ZM530.971 327.46C530.971 327.668 530.959 327.888 530.935 328.12H525.679C525.719 328.768 525.939 329.276 526.339 329.644C526.747 330.004 527.239 330.184 527.815 330.184C528.287 330.184 528.679 330.076 528.991 329.86C529.311 329.636 529.535 329.34 529.663 328.972H530.839C530.663 329.604 530.311 330.12 529.783 330.52C529.255 330.912 528.599 331.108 527.815 331.108C527.191 331.108 526.631 330.968 526.135 330.688C525.647 330.408 525.263 330.012 524.983 329.5C524.703 328.98 524.563 328.38 524.563 327.7C524.563 327.02 524.699 326.424 524.971 325.912C525.243 325.4 525.623 325.008 526.111 324.736C526.607 324.456 527.175 324.316 527.815 324.316C528.439 324.316 528.991 324.452 529.471 324.724C529.951 324.996 530.319 325.372 530.575 325.852C530.839 326.324 530.971 326.86 530.971 327.46ZM529.843 327.232C529.843 326.816 529.751 326.46 529.567 326.164C529.383 325.86 529.131 325.632 528.811 325.48C528.499 325.32 528.151 325.24 527.767 325.24C527.215 325.24 526.743 325.416 526.351 325.768C525.967 326.12 525.747 326.608 525.691 327.232H529.843ZM533.504 325.648C533.728 325.256 534.056 324.936 534.488 324.688C534.92 324.44 535.412 324.316 535.964 324.316C536.556 324.316 537.088 324.456 537.56 324.736C538.032 325.016 538.404 325.412 538.676 325.924C538.948 326.428 539.084 327.016 539.084 327.688C539.084 328.352 538.948 328.944 538.676 329.464C538.404 329.984 538.028 330.388 537.548 330.676C537.076 330.964 536.548 331.108 535.964 331.108C535.396 331.108 534.896 330.984 534.464 330.736C534.04 330.488 533.72 330.172 533.504 329.788V331H532.412V322.12H533.504V325.648ZM537.968 327.688C537.968 327.192 537.868 326.76 537.668 326.392C537.468 326.024 537.196 325.744 536.852 325.552C536.516 325.36 536.144 325.264 535.736 325.264C535.336 325.264 534.964 325.364 534.62 325.564C534.284 325.756 534.012 326.04 533.804 326.416C533.604 326.784 533.504 327.212 533.504 327.7C533.504 328.196 533.604 328.632 533.804 329.008C534.012 329.376 534.284 329.66 534.62 329.86C534.964 330.052 535.336 330.148 535.736 330.148C536.144 330.148 536.516 330.052 536.852 329.86C537.196 329.66 537.468 329.376 537.668 329.008C537.868 328.632 537.968 328.192 537.968 327.688ZM543.409 330.124C544.425 329.308 545.221 328.64 545.797 328.12C546.373 327.592 546.857 327.044 547.249 326.476C547.649 325.9 547.849 325.336 547.849 324.784C547.849 324.264 547.721 323.856 547.465 323.56C547.217 323.256 546.813 323.104 546.253 323.104C545.709 323.104 545.285 323.276 544.981 323.62C544.685 323.956 544.525 324.408 544.501 324.976H543.445C543.477 324.08 543.749 323.388 544.261 322.9C544.773 322.412 545.433 322.168 546.241 322.168C547.065 322.168 547.717 322.396 548.197 322.852C548.685 323.308 548.929 323.936 548.929 324.736C548.929 325.4 548.729 326.048 548.329 326.68C547.937 327.304 547.489 327.856 546.985 328.336C546.481 328.808 545.837 329.36 545.053 329.992H549.181V330.904H543.409V330.124ZM550.443 326.572C550.443 325.196 550.667 324.124 551.115 323.356C551.563 322.58 552.347 322.192 553.467 322.192C554.579 322.192 555.359 322.58 555.807 323.356C556.255 324.124 556.479 325.196 556.479 326.572C556.479 327.972 556.255 329.06 555.807 329.836C555.359 330.612 554.579 331 553.467 331C552.347 331 551.563 330.612 551.115 329.836C550.667 329.06 550.443 327.972 550.443 326.572ZM555.399 326.572C555.399 325.876 555.351 325.288 555.255 324.808C555.167 324.32 554.979 323.928 554.691 323.632C554.411 323.336 554.003 323.188 553.467 323.188C552.923 323.188 552.507 323.336 552.219 323.632C551.939 323.928 551.751 324.32 551.655 324.808C551.567 325.288 551.523 325.876 551.523 326.572C551.523 327.292 551.567 327.896 551.655 328.384C551.751 328.872 551.939 329.264 552.219 329.56C552.507 329.856 552.923 330.004 553.467 330.004C554.003 330.004 554.411 329.856 554.691 329.56C554.979 329.264 555.167 328.872 555.255 328.384C555.351 327.896 555.399 327.292 555.399 326.572ZM557.846 330.124C558.862 329.308 559.658 328.64 560.234 328.12C560.81 327.592 561.294 327.044 561.686 326.476C562.086 325.9 562.286 325.336 562.286 324.784C562.286 324.264 562.158 323.856 561.902 323.56C561.654 323.256 561.25 323.104 560.69 323.104C560.146 323.104 559.722 323.276 559.418 323.62C559.122 323.956 558.962 324.408 558.938 324.976H557.882C557.914 324.08 558.186 323.388 558.698 322.9C559.21 322.412 559.87 322.168 560.678 322.168C561.502 322.168 562.154 322.396 562.634 322.852C563.122 323.308 563.366 323.936 563.366 324.736C563.366 325.4 563.166 326.048 562.766 326.68C562.374 327.304 561.926 327.856 561.422 328.336C560.918 328.808 560.274 329.36 559.49 329.992H563.618V330.904H557.846V330.124ZM570.413 323.272H566.201V326.008C566.385 325.752 566.657 325.544 567.017 325.384C567.377 325.216 567.765 325.132 568.181 325.132C568.845 325.132 569.385 325.272 569.801 325.552C570.217 325.824 570.513 326.18 570.689 326.62C570.873 327.052 570.965 327.512 570.965 328C570.965 328.576 570.857 329.092 570.641 329.548C570.425 330.004 570.093 330.364 569.645 330.628C569.205 330.892 568.657 331.024 568.001 331.024C567.161 331.024 566.481 330.808 565.961 330.376C565.441 329.944 565.125 329.368 565.013 328.648H566.081C566.185 329.104 566.405 329.46 566.741 329.716C567.077 329.972 567.501 330.1 568.013 330.1C568.645 330.1 569.121 329.912 569.441 329.536C569.761 329.152 569.921 328.648 569.921 328.024C569.921 327.4 569.761 326.92 569.441 326.584C569.121 326.24 568.649 326.068 568.025 326.068C567.601 326.068 567.229 326.172 566.909 326.38C566.597 326.58 566.369 326.856 566.225 327.208H565.193V322.312H570.413V323.272Z" fill="#6B7280"/>
<path d="M647.408 322.696V331H646.316V324.808L643.556 331H642.788L640.016 324.796V331H638.924V322.696H640.1L643.172 329.56L646.244 322.696H647.408ZM648.852 327.688C648.852 327.016 648.988 326.428 649.26 325.924C649.532 325.412 649.904 325.016 650.376 324.736C650.856 324.456 651.388 324.316 651.972 324.316C652.548 324.316 653.048 324.44 653.472 324.688C653.896 324.936 654.212 325.248 654.42 325.624V324.424H655.524V331H654.42V329.776C654.204 330.16 653.88 330.48 653.448 330.736C653.024 330.984 652.528 331.108 651.96 331.108C651.376 331.108 650.848 330.964 650.376 330.676C649.904 330.388 649.532 329.984 649.26 329.464C648.988 328.944 648.852 328.352 648.852 327.688ZM654.42 327.7C654.42 327.204 654.32 326.772 654.12 326.404C653.92 326.036 653.648 325.756 653.304 325.564C652.968 325.364 652.596 325.264 652.188 325.264C651.78 325.264 651.408 325.36 651.072 325.552C650.736 325.744 650.468 326.024 650.268 326.392C650.068 326.76 649.968 327.192 649.968 327.688C649.968 328.192 650.068 328.632 650.268 329.008C650.468 329.376 650.736 329.66 651.072 329.86C651.408 330.052 651.78 330.148 652.188 330.148C652.596 330.148 652.968 330.052 653.304 329.86C653.648 329.66 653.92 329.376 654.12 329.008C654.32 328.632 654.42 328.196 654.42 327.7ZM658.461 325.492C658.653 325.116 658.925 324.824 659.277 324.616C659.637 324.408 660.073 324.304 660.585 324.304V325.432H660.297C659.073 325.432 658.461 326.096 658.461 327.424V331H657.369V324.424H658.461V325.492ZM664.733 330.124C665.749 329.308 666.545 328.64 667.121 328.12C667.697 327.592 668.181 327.044 668.573 326.476C668.973 325.9 669.173 325.336 669.173 324.784C669.173 324.264 669.045 323.856 668.789 323.56C668.541 323.256 668.137 323.104 667.577 323.104C667.033 323.104 666.609 323.276 666.305 323.62C666.009 323.956 665.849 324.408 665.825 324.976H664.769C664.801 324.08 665.073 323.388 665.585 322.9C666.097 322.412 666.757 322.168 667.565 322.168C668.389 322.168 669.041 322.396 669.521 322.852C670.009 323.308 670.253 323.936 670.253 324.736C670.253 325.4 670.053 326.048 669.653 326.68C669.261 327.304 668.813 327.856 668.309 328.336C667.805 328.808 667.161 329.36 666.377 329.992H670.505V330.904H664.733V330.124ZM671.767 326.572C671.767 325.196 671.991 324.124 672.439 323.356C672.887 322.58 673.671 322.192 674.791 322.192C675.903 322.192 676.683 322.58 677.131 323.356C677.579 324.124 677.803 325.196 677.803 326.572C677.803 327.972 677.579 329.06 677.131 329.836C676.683 330.612 675.903 331 674.791 331C673.671 331 672.887 330.612 672.439 329.836C671.991 329.06 671.767 327.972 671.767 326.572ZM676.723 326.572C676.723 325.876 676.675 325.288 676.579 324.808C676.491 324.32 676.303 323.928 676.015 323.632C675.735 323.336 675.327 323.188 674.791 323.188C674.247 323.188 673.831 323.336 673.543 323.632C673.263 323.928 673.075 324.32 672.979 324.808C672.891 325.288 672.847 325.876 672.847 326.572C672.847 327.292 672.891 327.896 672.979 328.384C673.075 328.872 673.263 329.264 673.543 329.56C673.831 329.856 674.247 330.004 674.791 330.004C675.327 330.004 675.735 329.856 676.015 329.56C676.303 329.264 676.491 328.872 676.579 328.384C676.675 327.896 676.723 327.292 676.723 326.572ZM679.171 330.124C680.187 329.308 680.983 328.64 681.559 328.12C682.135 327.592 682.619 327.044 683.011 326.476C683.411 325.9 683.611 325.336 683.611 324.784C683.611 324.264 683.483 323.856 683.227 323.56C682.979 323.256 682.575 323.104 682.015 323.104C681.471 323.104 681.047 323.276 680.743 323.62C680.447 323.956 680.287 324.408 680.263 324.976H679.207C679.239 324.08 679.511 323.388 680.023 322.9C680.535 322.412 681.195 322.168 682.003 322.168C682.827 322.168 683.479 322.396 683.959 322.852C684.447 323.308 684.691 323.936 684.691 324.736C684.691 325.4 684.491 326.048 684.091 326.68C683.699 327.304 683.251 327.856 682.747 328.336C682.243 328.808 681.599 329.36 680.815 329.992H684.943V330.904H679.171V330.124ZM691.737 323.272H687.525V326.008C687.709 325.752 687.981 325.544 688.341 325.384C688.701 325.216 689.089 325.132 689.505 325.132C690.169 325.132 690.709 325.272 691.125 325.552C691.541 325.824 691.837 326.18 692.013 326.62C692.197 327.052 692.289 327.512 692.289 328C692.289 328.576 692.181 329.092 691.965 329.548C691.749 330.004 691.417 330.364 690.969 330.628C690.529 330.892 689.981 331.024 689.325 331.024C688.485 331.024 687.805 330.808 687.285 330.376C686.765 329.944 686.449 329.368 686.337 328.648H687.405C687.509 329.104 687.729 329.46 688.065 329.716C688.401 329.972 688.825 330.1 689.337 330.1C689.969 330.1 690.445 329.912 690.765 329.536C691.085 329.152 691.245 328.648 691.245 328.024C691.245 327.4 691.085 326.92 690.765 326.584C690.445 326.24 689.973 326.068 689.349 326.068C688.925 326.068 688.553 326.172 688.233 326.38C687.921 326.58 687.693 326.856 687.549 327.208H686.517V322.312H691.737V323.272Z" fill="#6B7280"/>
<defs>
<filter id="filter0_f_1_2202" x="17.9995" y="177.979" width="677.001" height="106.6" filterUnits="userSpaceOnUse" color-interpolation-filters="sRGB">
<feFlood flood-opacity="0" result="BackgroundImageFix"/>
<feBlend mode="normal" in="SourceGraphic" in2="BackgroundImageFix" result="shape"/>
<feGaussianBlur stdDeviation="7" result="effect1_foregroundBlur_1_2202"/>
</filter>
<filter id="filter1_f_1_2202" x="17.9995" y="153.998" width="677.001" height="92.0016" filterUnits="userSpaceOnUse" color-interpolation-filters="sRGB">
<feFlood flood-opacity="0" result="BackgroundImageFix"/>
<feBlend mode="normal" in="SourceGraphic" in2="BackgroundImageFix" result="shape"/>
<feGaussianBlur stdDeviation="7" result="effect1_foregroundBlur_1_2202"/>
</filter>
<filter id="filter2_d_1_2202" x="404.156" y="154" width="22.0435" height="22" filterUnits="userSpaceOnUse" color-interpolation-filters="sRGB">
<feFlood flood-opacity="0" result="BackgroundImageFix"/>
<feColorMatrix in="SourceAlpha" type="matrix" values="0 0 0 0 0 0 0 0 0 0 0 0 0 0 0 0 0 0 127 0" result="hardAlpha"/>
<feOffset dy="2"/>
<feGaussianBlur stdDeviation="2"/>
<feColorMatrix type="matrix" values="0 0 0 0 0.268354 0 0 0 0 0.268354 0 0 0 0 0.31049 0 0 0 0.15 0"/>
<feBlend mode="normal" in2="BackgroundImageFix" result="effect1_dropShadow_1_2202"/>
<feBlend mode="normal" in="SourceGraphic" in2="effect1_dropShadow_1_2202" result="shape"/>
</filter>
<filter id="filter3_d_1_2202" x="321" y="32" width="186" height="161" filterUnits="userSpaceOnUse" color-interpolation-filters="sRGB">
<feFlood flood-opacity="0" result="BackgroundImageFix"/>
<feColorMatrix in="SourceAlpha" type="matrix" values="0 0 0 0 0 0 0 0 0 0 0 0 0 0 0 0 0 0 127 0" result="hardAlpha"/>
<feOffset dy="10"/>
<feGaussianBlur stdDeviation="16"/>
<feComposite in2="hardAlpha" operator="out"/>
<feColorMatrix type="matrix" values="0 0 0 0 0.121569 0 0 0 0 0.184314 0 0 0 0 0.27451 0 0 0 0.12 0"/>
<feBlend mode="normal" in2="BackgroundImageFix" result="effect1_dropShadow_1_2202"/>
<feBlend mode="normal" in="SourceGraphic" in2="effect1_dropShadow_1_2202" result="shape"/>
</filter>
</defs>
</svg>
