<svg width="695" height="350" viewBox="0 0 695 350" fill="none" xmlns="http://www.w3.org/2000/svg">
<path d="M490.488 246.14C490.488 247.3 490.088 248.267 489.288 249.04C488.501 249.8 487.294 250.18 485.668 250.18H482.988V256H481.168V242.06H485.668C487.241 242.06 488.434 242.44 489.248 243.2C490.074 243.96 490.488 244.94 490.488 246.14ZM485.668 248.68C486.681 248.68 487.428 248.46 487.908 248.02C488.388 247.58 488.628 246.953 488.628 246.14C488.628 244.42 487.641 243.56 485.668 243.56H482.988V248.68H485.668ZM502.75 250.1C502.75 250.447 502.73 250.813 502.69 251.2H493.93C493.996 252.28 494.363 253.127 495.03 253.74C495.71 254.34 496.53 254.64 497.49 254.64C498.276 254.64 498.93 254.46 499.45 254.1C499.983 253.727 500.356 253.233 500.57 252.62H502.53C502.236 253.673 501.65 254.533 500.77 255.2C499.89 255.853 498.796 256.18 497.49 256.18C496.45 256.18 495.516 255.947 494.69 255.48C493.876 255.013 493.236 254.353 492.77 253.5C492.303 252.633 492.07 251.633 492.07 250.5C492.07 249.367 492.296 248.373 492.75 247.52C493.203 246.667 493.836 246.013 494.65 245.56C495.476 245.093 496.423 244.86 497.49 244.86C498.53 244.86 499.45 245.087 500.25 245.54C501.05 245.993 501.663 246.62 502.09 247.42C502.53 248.207 502.75 249.1 502.75 250.1ZM500.87 249.72C500.87 249.027 500.716 248.433 500.41 247.94C500.103 247.433 499.683 247.053 499.15 246.8C498.63 246.533 498.05 246.4 497.41 246.4C496.49 246.4 495.703 246.693 495.05 247.28C494.41 247.867 494.043 248.68 493.95 249.72H500.87ZM510.492 244.84C511.825 244.84 512.905 245.247 513.732 246.06C514.559 246.86 514.972 248.02 514.972 249.54V256H513.172V249.8C513.172 248.707 512.899 247.873 512.352 247.3C511.805 246.713 511.059 246.42 510.112 246.42C509.152 246.42 508.385 246.72 507.812 247.32C507.252 247.92 506.972 248.793 506.972 249.94V256H505.152V245.04H506.972V246.6C507.332 246.04 507.819 245.607 508.432 245.3C509.059 244.993 509.745 244.84 510.492 244.84ZM517.265 250.48C517.265 249.36 517.492 248.38 517.945 247.54C518.398 246.687 519.018 246.027 519.805 245.56C520.605 245.093 521.498 244.86 522.485 244.86C523.338 244.86 524.132 245.06 524.865 245.46C525.598 245.847 526.158 246.36 526.545 247V241.2H528.385V256H526.545V253.94C526.185 254.593 525.652 255.133 524.945 255.56C524.238 255.973 523.412 256.18 522.465 256.18C521.492 256.18 520.605 255.94 519.805 255.46C519.018 254.98 518.398 254.307 517.945 253.44C517.492 252.573 517.265 251.587 517.265 250.48ZM526.545 250.5C526.545 249.673 526.378 248.953 526.045 248.34C525.712 247.727 525.258 247.26 524.685 246.94C524.125 246.607 523.505 246.44 522.825 246.44C522.145 246.44 521.525 246.6 520.965 246.92C520.405 247.24 519.958 247.707 519.625 248.32C519.292 248.933 519.125 249.653 519.125 250.48C519.125 251.32 519.292 252.053 519.625 252.68C519.958 253.293 520.405 253.767 520.965 254.1C521.525 254.42 522.145 254.58 522.825 254.58C523.505 254.58 524.125 254.42 524.685 254.1C525.258 253.767 525.712 253.293 526.045 252.68C526.378 252.053 526.545 251.327 526.545 250.5ZM532.401 243.26C532.054 243.26 531.761 243.14 531.521 242.9C531.281 242.66 531.161 242.367 531.161 242.02C531.161 241.673 531.281 241.38 531.521 241.14C531.761 240.9 532.054 240.78 532.401 240.78C532.734 240.78 533.014 240.9 533.241 241.14C533.481 241.38 533.601 241.673 533.601 242.02C533.601 242.367 533.481 242.66 533.241 242.9C533.014 243.14 532.734 243.26 532.401 243.26ZM533.281 245.04V256H531.461V245.04H533.281ZM541.722 244.84C543.056 244.84 544.136 245.247 544.962 246.06C545.789 246.86 546.202 248.02 546.202 249.54V256H544.402V249.8C544.402 248.707 544.129 247.873 543.582 247.3C543.036 246.713 542.289 246.42 541.342 246.42C540.382 246.42 539.616 246.72 539.042 247.32C538.482 247.92 538.202 248.793 538.202 249.94V256H536.382V245.04H538.202V246.6C538.562 246.04 539.049 245.607 539.662 245.3C540.289 244.993 540.976 244.84 541.722 244.84ZM553.695 244.86C554.642 244.86 555.469 245.067 556.175 245.48C556.895 245.893 557.429 246.413 557.775 247.04V245.04H559.615V256.24C559.615 257.24 559.402 258.127 558.975 258.9C558.549 259.687 557.935 260.3 557.135 260.74C556.349 261.18 555.429 261.4 554.375 261.4C552.935 261.4 551.735 261.06 550.775 260.38C549.815 259.7 549.249 258.773 549.075 257.6H550.875C551.075 258.267 551.489 258.8 552.115 259.2C552.742 259.613 553.495 259.82 554.375 259.82C555.375 259.82 556.189 259.507 556.815 258.88C557.455 258.253 557.775 257.373 557.775 256.24V253.94C557.415 254.58 556.882 255.113 556.175 255.54C555.469 255.967 554.642 256.18 553.695 256.18C552.722 256.18 551.835 255.94 551.035 255.46C550.249 254.98 549.629 254.307 549.175 253.44C548.722 252.573 548.495 251.587 548.495 250.48C548.495 249.36 548.722 248.38 549.175 247.54C549.629 246.687 550.249 246.027 551.035 245.56C551.835 245.093 552.722 244.86 553.695 244.86ZM557.775 250.5C557.775 249.673 557.609 248.953 557.275 248.34C556.942 247.727 556.489 247.26 555.915 246.94C555.355 246.607 554.735 246.44 554.055 246.44C553.375 246.44 552.755 246.6 552.195 246.92C551.635 247.24 551.189 247.707 550.855 248.32C550.522 248.933 550.355 249.653 550.355 250.48C550.355 251.32 550.522 252.053 550.855 252.68C551.189 253.293 551.635 253.767 552.195 254.1C552.755 254.42 553.375 254.58 554.055 254.58C554.735 254.58 555.355 254.42 555.915 254.1C556.489 253.767 556.942 253.293 557.275 252.68C557.609 252.053 557.775 251.327 557.775 250.5Z" fill="#2B3A4A"/>
<path d="M484.879 208.43C483.586 208.43 482.406 208.13 481.339 207.53C480.272 206.916 479.426 206.07 478.799 204.99C478.186 203.896 477.879 202.67 477.879 201.31C477.879 199.95 478.186 198.73 478.799 197.65C479.426 196.556 480.272 195.71 481.339 195.11C482.406 194.496 483.586 194.19 484.879 194.19C486.186 194.19 487.372 194.496 488.439 195.11C489.506 195.71 490.346 196.55 490.959 197.63C491.572 198.71 491.879 199.936 491.879 201.31C491.879 202.683 491.572 203.91 490.959 204.99C490.346 206.07 489.506 206.916 488.439 207.53C487.372 208.13 486.186 208.43 484.879 208.43ZM484.879 206.85C485.852 206.85 486.726 206.623 487.499 206.17C488.286 205.716 488.899 205.07 489.339 204.23C489.792 203.39 490.019 202.416 490.019 201.31C490.019 200.19 489.792 199.216 489.339 198.39C488.899 197.55 488.292 196.903 487.519 196.45C486.746 195.996 485.866 195.77 484.879 195.77C483.892 195.77 483.012 195.996 482.239 196.45C481.466 196.903 480.852 197.55 480.399 198.39C479.959 199.216 479.739 200.19 479.739 201.31C479.739 202.416 479.959 203.39 480.399 204.23C480.852 205.07 481.466 205.716 482.239 206.17C483.026 206.623 483.906 206.85 484.879 206.85ZM499.622 197.13C500.955 197.13 502.035 197.536 502.862 198.35C503.688 199.15 504.102 200.31 504.102 201.83V208.29H502.302V202.09C502.302 200.996 502.028 200.163 501.482 199.59C500.935 199.003 500.188 198.71 499.242 198.71C498.282 198.71 497.515 199.01 496.942 199.61C496.382 200.21 496.102 201.083 496.102 202.23V208.29H494.282V197.33H496.102V198.89C496.462 198.33 496.948 197.896 497.562 197.59C498.188 197.283 498.875 197.13 499.622 197.13ZM521.727 198.43C521.727 199.59 521.327 200.556 520.527 201.33C519.74 202.09 518.533 202.47 516.907 202.47H514.227V208.29H512.407V194.35H516.907C518.48 194.35 519.673 194.73 520.487 195.49C521.313 196.25 521.727 197.23 521.727 198.43ZM516.907 200.97C517.92 200.97 518.667 200.75 519.147 200.31C519.627 199.87 519.867 199.243 519.867 198.43C519.867 196.71 518.88 195.85 516.907 195.85H514.227V200.97H516.907ZM525.809 199.11C526.129 198.483 526.582 197.996 527.169 197.65C527.769 197.303 528.495 197.13 529.349 197.13V199.01H528.869C526.829 199.01 525.809 200.116 525.809 202.33V208.29H523.989V197.33H525.809V199.11ZM536.23 208.47C535.203 208.47 534.27 208.236 533.43 207.77C532.603 207.303 531.95 206.643 531.47 205.79C531.003 204.923 530.77 203.923 530.77 202.79C530.77 201.67 531.01 200.683 531.49 199.83C531.983 198.963 532.65 198.303 533.49 197.85C534.33 197.383 535.27 197.15 536.31 197.15C537.35 197.15 538.29 197.383 539.13 197.85C539.97 198.303 540.63 198.956 541.11 199.81C541.603 200.663 541.85 201.656 541.85 202.79C541.85 203.923 541.596 204.923 541.09 205.79C540.596 206.643 539.923 207.303 539.07 207.77C538.216 208.236 537.27 208.47 536.23 208.47ZM536.23 206.87C536.883 206.87 537.496 206.716 538.07 206.41C538.643 206.103 539.103 205.643 539.45 205.03C539.81 204.416 539.99 203.67 539.99 202.79C539.99 201.91 539.816 201.163 539.47 200.55C539.123 199.936 538.67 199.483 538.11 199.19C537.55 198.883 536.943 198.73 536.29 198.73C535.623 198.73 535.01 198.883 534.45 199.19C533.903 199.483 533.463 199.936 533.13 200.55C532.796 201.163 532.63 201.91 532.63 202.79C532.63 203.683 532.79 204.436 533.11 205.05C533.443 205.663 533.883 206.123 534.43 206.43C534.976 206.723 535.576 206.87 536.23 206.87ZM548.763 197.15C549.709 197.15 550.536 197.356 551.243 197.77C551.963 198.183 552.496 198.703 552.843 199.33V197.33H554.683V208.53C554.683 209.53 554.469 210.416 554.043 211.19C553.616 211.976 553.003 212.59 552.203 213.03C551.416 213.47 550.496 213.69 549.443 213.69C548.003 213.69 546.803 213.35 545.843 212.67C544.883 211.99 544.316 211.063 544.143 209.89H545.943C546.143 210.556 546.556 211.09 547.183 211.49C547.809 211.903 548.563 212.11 549.443 212.11C550.443 212.11 551.256 211.796 551.883 211.17C552.523 210.543 552.843 209.663 552.843 208.53V206.23C552.483 206.87 551.949 207.403 551.243 207.83C550.536 208.256 549.709 208.47 548.763 208.47C547.789 208.47 546.903 208.23 546.103 207.75C545.316 207.27 544.696 206.596 544.243 205.73C543.789 204.863 543.563 203.876 543.563 202.77C543.563 201.65 543.789 200.67 544.243 199.83C544.696 198.976 545.316 198.316 546.103 197.85C546.903 197.383 547.789 197.15 548.763 197.15ZM552.843 202.79C552.843 201.963 552.676 201.243 552.343 200.63C552.009 200.016 551.556 199.55 550.983 199.23C550.423 198.896 549.803 198.73 549.123 198.73C548.443 198.73 547.823 198.89 547.263 199.21C546.703 199.53 546.256 199.996 545.923 200.61C545.589 201.223 545.423 201.943 545.423 202.77C545.423 203.61 545.589 204.343 545.923 204.97C546.256 205.583 546.703 206.056 547.263 206.39C547.823 206.71 548.443 206.87 549.123 206.87C549.803 206.87 550.423 206.71 550.983 206.39C551.556 206.056 552.009 205.583 552.343 204.97C552.676 204.343 552.843 203.616 552.843 202.79ZM559.578 199.11C559.898 198.483 560.351 197.996 560.938 197.65C561.538 197.303 562.265 197.13 563.118 197.13V199.01H562.638C560.598 199.01 559.578 200.116 559.578 202.33V208.29H557.758V197.33H559.578V199.11ZM575.219 202.39C575.219 202.736 575.199 203.103 575.159 203.49H566.399C566.466 204.57 566.832 205.416 567.499 206.03C568.179 206.63 568.999 206.93 569.959 206.93C570.746 206.93 571.399 206.75 571.919 206.39C572.452 206.016 572.826 205.523 573.039 204.91H574.999C574.706 205.963 574.119 206.823 573.239 207.49C572.359 208.143 571.266 208.47 569.959 208.47C568.919 208.47 567.986 208.236 567.159 207.77C566.346 207.303 565.706 206.643 565.239 205.79C564.772 204.923 564.539 203.923 564.539 202.79C564.539 201.656 564.766 200.663 565.219 199.81C565.672 198.956 566.306 198.303 567.119 197.85C567.946 197.383 568.892 197.15 569.959 197.15C570.999 197.15 571.919 197.376 572.719 197.83C573.519 198.283 574.132 198.91 574.559 199.71C574.999 200.496 575.219 201.39 575.219 202.39ZM573.339 202.01C573.339 201.316 573.186 200.723 572.879 200.23C572.572 199.723 572.152 199.343 571.619 199.09C571.099 198.823 570.519 198.69 569.879 198.69C568.959 198.69 568.172 198.983 567.519 199.57C566.879 200.156 566.512 200.97 566.419 202.01H573.339ZM581.501 208.47C580.661 208.47 579.908 208.33 579.241 208.05C578.575 207.756 578.048 207.356 577.661 206.85C577.275 206.33 577.061 205.736 577.021 205.07H578.901C578.955 205.616 579.208 206.063 579.661 206.41C580.128 206.756 580.735 206.93 581.481 206.93C582.175 206.93 582.721 206.776 583.121 206.47C583.521 206.163 583.721 205.776 583.721 205.31C583.721 204.83 583.508 204.476 583.081 204.25C582.655 204.01 581.995 203.776 581.101 203.55C580.288 203.336 579.621 203.123 579.101 202.91C578.595 202.683 578.155 202.356 577.781 201.93C577.421 201.49 577.241 200.916 577.241 200.21C577.241 199.65 577.408 199.136 577.741 198.67C578.075 198.203 578.548 197.836 579.161 197.57C579.775 197.29 580.475 197.15 581.261 197.15C582.475 197.15 583.455 197.456 584.201 198.07C584.948 198.683 585.348 199.523 585.401 200.59H583.581C583.541 200.016 583.308 199.556 582.881 199.21C582.468 198.863 581.908 198.69 581.201 198.69C580.548 198.69 580.028 198.83 579.641 199.11C579.255 199.39 579.061 199.756 579.061 200.21C579.061 200.57 579.175 200.87 579.401 201.11C579.641 201.336 579.935 201.523 580.281 201.67C580.641 201.803 581.135 201.956 581.761 202.13C582.548 202.343 583.188 202.556 583.681 202.77C584.175 202.97 584.595 203.276 584.941 203.69C585.301 204.103 585.488 204.643 585.501 205.31C585.501 205.91 585.335 206.45 585.001 206.93C584.668 207.41 584.195 207.79 583.581 208.07C582.981 208.336 582.288 208.47 581.501 208.47ZM591.951 208.47C591.111 208.47 590.357 208.33 589.691 208.05C589.024 207.756 588.497 207.356 588.111 206.85C587.724 206.33 587.511 205.736 587.471 205.07H589.351C589.404 205.616 589.657 206.063 590.111 206.41C590.577 206.756 591.184 206.93 591.931 206.93C592.624 206.93 593.171 206.776 593.571 206.47C593.971 206.163 594.171 205.776 594.171 205.31C594.171 204.83 593.957 204.476 593.531 204.25C593.104 204.01 592.444 203.776 591.551 203.55C590.737 203.336 590.071 203.123 589.551 202.91C589.044 202.683 588.604 202.356 588.231 201.93C587.871 201.49 587.691 200.916 587.691 200.21C587.691 199.65 587.857 199.136 588.191 198.67C588.524 198.203 588.997 197.836 589.611 197.57C590.224 197.29 590.924 197.15 591.711 197.15C592.924 197.15 593.904 197.456 594.651 198.07C595.397 198.683 595.797 199.523 595.851 200.59H594.031C593.991 200.016 593.757 199.556 593.331 199.21C592.917 198.863 592.357 198.69 591.651 198.69C590.997 198.69 590.477 198.83 590.091 199.11C589.704 199.39 589.511 199.756 589.511 200.21C589.511 200.57 589.624 200.87 589.851 201.11C590.091 201.336 590.384 201.523 590.731 201.67C591.091 201.803 591.584 201.956 592.211 202.13C592.997 202.343 593.637 202.556 594.131 202.77C594.624 202.97 595.044 203.276 595.391 203.69C595.751 204.103 595.937 204.643 595.951 205.31C595.951 205.91 595.784 206.45 595.451 206.93C595.117 207.41 594.644 207.79 594.031 208.07C593.431 208.336 592.737 208.47 591.951 208.47Z" fill="#2B3A4A"/>
<path d="M451.642 243H465.985V256.317H451.642V243Z" fill="#D65B83"/>
<path d="M484.879 160.285C483.586 160.285 482.406 159.985 481.339 159.385C480.272 158.772 479.426 157.925 478.799 156.845C478.186 155.752 477.879 154.525 477.879 153.165C477.879 151.805 478.186 150.585 478.799 149.505C479.426 148.412 480.272 147.565 481.339 146.965C482.406 146.352 483.586 146.045 484.879 146.045C486.186 146.045 487.372 146.352 488.439 146.965C489.506 147.565 490.346 148.405 490.959 149.485C491.572 150.565 491.879 151.792 491.879 153.165C491.879 154.538 491.572 155.765 490.959 156.845C490.346 157.925 489.506 158.772 488.439 159.385C487.372 159.985 486.186 160.285 484.879 160.285ZM484.879 158.705C485.852 158.705 486.726 158.478 487.499 158.025C488.286 157.572 488.899 156.925 489.339 156.085C489.792 155.245 490.019 154.272 490.019 153.165C490.019 152.045 489.792 151.072 489.339 150.245C488.899 149.405 488.292 148.758 487.519 148.305C486.746 147.852 485.866 147.625 484.879 147.625C483.892 147.625 483.012 147.852 482.239 148.305C481.466 148.758 480.852 149.405 480.399 150.245C479.959 151.072 479.739 152.045 479.739 153.165C479.739 154.272 479.959 155.245 480.399 156.085C480.852 156.925 481.466 157.572 482.239 158.025C483.026 158.478 483.906 158.705 484.879 158.705ZM499.622 148.985C500.955 148.985 502.035 149.392 502.862 150.205C503.688 151.005 504.102 152.165 504.102 153.685V160.145H502.302V153.945C502.302 152.852 502.028 152.018 501.482 151.445C500.935 150.858 500.188 150.565 499.242 150.565C498.282 150.565 497.515 150.865 496.942 151.465C496.382 152.065 496.102 152.938 496.102 154.085V160.145H494.282V149.185H496.102V150.745C496.462 150.185 496.948 149.752 497.562 149.445C498.188 149.138 498.875 148.985 499.622 148.985ZM523.147 146.205V160.145H521.327V153.825H514.227V160.145H512.407V146.205H514.227V152.325H521.327V146.205H523.147ZM531.034 160.325C530.008 160.325 529.074 160.092 528.234 159.625C527.408 159.158 526.754 158.498 526.274 157.645C525.808 156.778 525.574 155.778 525.574 154.645C525.574 153.525 525.814 152.538 526.294 151.685C526.788 150.818 527.454 150.158 528.294 149.705C529.134 149.238 530.074 149.005 531.114 149.005C532.154 149.005 533.094 149.238 533.934 149.705C534.774 150.158 535.434 150.812 535.914 151.665C536.408 152.518 536.654 153.512 536.654 154.645C536.654 155.778 536.401 156.778 535.894 157.645C535.401 158.498 534.728 159.158 533.874 159.625C533.021 160.092 532.074 160.325 531.034 160.325ZM531.034 158.725C531.688 158.725 532.301 158.572 532.874 158.265C533.448 157.958 533.908 157.498 534.254 156.885C534.614 156.272 534.794 155.525 534.794 154.645C534.794 153.765 534.621 153.018 534.274 152.405C533.928 151.792 533.474 151.338 532.914 151.045C532.354 150.738 531.748 150.585 531.094 150.585C530.428 150.585 529.814 150.738 529.254 151.045C528.708 151.338 528.268 151.792 527.934 152.405C527.601 153.018 527.434 153.765 527.434 154.645C527.434 155.538 527.594 156.292 527.914 156.905C528.248 157.518 528.688 157.978 529.234 158.285C529.781 158.578 530.381 158.725 531.034 158.725ZM540.867 145.345V160.145H539.047V145.345H540.867ZM543.289 154.625C543.289 153.505 543.516 152.525 543.969 151.685C544.422 150.832 545.042 150.172 545.829 149.705C546.629 149.238 547.522 149.005 548.509 149.005C549.362 149.005 550.156 149.205 550.889 149.605C551.622 149.992 552.182 150.505 552.569 151.145V145.345H554.409V160.145H552.569V158.085C552.209 158.738 551.676 159.278 550.969 159.705C550.262 160.118 549.436 160.325 548.489 160.325C547.516 160.325 546.629 160.085 545.829 159.605C545.042 159.125 544.422 158.452 543.969 157.585C543.516 156.718 543.289 155.732 543.289 154.625ZM552.569 154.645C552.569 153.818 552.402 153.098 552.069 152.485C551.736 151.872 551.282 151.405 550.709 151.085C550.149 150.752 549.529 150.585 548.849 150.585C548.169 150.585 547.549 150.745 546.989 151.065C546.429 151.385 545.982 151.852 545.649 152.465C545.316 153.078 545.149 153.798 545.149 154.625C545.149 155.465 545.316 156.198 545.649 156.825C545.982 157.438 546.429 157.912 546.989 158.245C547.549 158.565 548.169 158.725 548.849 158.725C549.529 158.725 550.149 158.565 550.709 158.245C551.282 157.912 551.736 157.438 552.069 156.825C552.402 156.198 552.569 155.472 552.569 154.645Z" fill="#2B3A4A"/>
<path d="M477.879 105.02C477.879 103.66 478.186 102.44 478.799 101.36C479.412 100.267 480.246 99.4133 481.299 98.8C482.366 98.1867 483.546 97.88 484.839 97.88C486.359 97.88 487.686 98.2467 488.819 98.98C489.952 99.7133 490.779 100.753 491.299 102.1H489.119C488.732 101.26 488.172 100.613 487.439 100.16C486.719 99.7067 485.852 99.48 484.839 99.48C483.866 99.48 482.992 99.7067 482.219 100.16C481.446 100.613 480.839 101.26 480.399 102.1C479.959 102.927 479.739 103.9 479.739 105.02C479.739 106.127 479.959 107.1 480.399 107.94C480.839 108.767 481.446 109.407 482.219 109.86C482.992 110.313 483.866 110.54 484.839 110.54C485.852 110.54 486.719 110.32 487.439 109.88C488.172 109.427 488.732 108.78 489.119 107.94H491.299C490.779 109.273 489.952 110.307 488.819 111.04C487.686 111.76 486.359 112.12 484.839 112.12C483.546 112.12 482.366 111.82 481.299 111.22C480.246 110.607 479.412 109.76 478.799 108.68C478.186 107.6 477.879 106.38 477.879 105.02ZM498.788 112.18C497.761 112.18 496.828 111.947 495.988 111.48C495.161 111.013 494.508 110.353 494.028 109.5C493.561 108.633 493.328 107.633 493.328 106.5C493.328 105.38 493.568 104.393 494.048 103.54C494.541 102.673 495.208 102.013 496.048 101.56C496.888 101.093 497.828 100.86 498.868 100.86C499.908 100.86 500.848 101.093 501.688 101.56C502.528 102.013 503.188 102.667 503.668 103.52C504.161 104.373 504.408 105.367 504.408 106.5C504.408 107.633 504.155 108.633 503.648 109.5C503.155 110.353 502.481 111.013 501.628 111.48C500.775 111.947 499.828 112.18 498.788 112.18ZM498.788 110.58C499.441 110.58 500.055 110.427 500.628 110.12C501.201 109.813 501.661 109.353 502.008 108.74C502.368 108.127 502.548 107.38 502.548 106.5C502.548 105.62 502.375 104.873 502.028 104.26C501.681 103.647 501.228 103.193 500.668 102.9C500.108 102.593 499.501 102.44 498.848 102.44C498.181 102.44 497.568 102.593 497.008 102.9C496.461 103.193 496.021 103.647 495.688 104.26C495.355 104.873 495.188 105.62 495.188 106.5C495.188 107.393 495.348 108.147 495.668 108.76C496.001 109.373 496.441 109.833 496.988 110.14C497.535 110.433 498.135 110.58 498.788 110.58ZM519.981 100.84C520.834 100.84 521.594 101.02 522.261 101.38C522.928 101.727 523.454 102.253 523.841 102.96C524.228 103.667 524.421 104.527 524.421 105.54V112H522.621V105.8C522.621 104.707 522.348 103.873 521.801 103.3C521.268 102.713 520.541 102.42 519.621 102.42C518.674 102.42 517.921 102.727 517.361 103.34C516.801 103.94 516.521 104.813 516.521 105.96V112H514.721V105.8C514.721 104.707 514.448 103.873 513.901 103.3C513.368 102.713 512.641 102.42 511.721 102.42C510.774 102.42 510.021 102.727 509.461 103.34C508.901 103.94 508.621 104.813 508.621 105.96V112H506.801V101.04H508.621V102.62C508.981 102.047 509.461 101.607 510.061 101.3C510.674 100.993 511.348 100.84 512.081 100.84C513.001 100.84 513.814 101.047 514.521 101.46C515.228 101.873 515.754 102.48 516.101 103.28C516.408 102.507 516.914 101.907 517.621 101.48C518.328 101.053 519.114 100.84 519.981 100.84ZM529.227 103.06C529.587 102.433 530.12 101.913 530.827 101.5C531.547 101.073 532.38 100.86 533.327 100.86C534.3 100.86 535.18 101.093 535.967 101.56C536.767 102.027 537.393 102.687 537.847 103.54C538.3 104.38 538.527 105.36 538.527 106.48C538.527 107.587 538.3 108.573 537.847 109.44C537.393 110.307 536.767 110.98 535.967 111.46C535.18 111.94 534.3 112.18 533.327 112.18C532.393 112.18 531.567 111.973 530.847 111.56C530.14 111.133 529.6 110.607 529.227 109.98V117.2H527.407V101.04H529.227V103.06ZM536.667 106.48C536.667 105.653 536.5 104.933 536.167 104.32C535.833 103.707 535.38 103.24 534.807 102.92C534.247 102.6 533.627 102.44 532.947 102.44C532.28 102.44 531.66 102.607 531.087 102.94C530.527 103.26 530.073 103.733 529.727 104.36C529.393 104.973 529.227 105.687 529.227 106.5C529.227 107.327 529.393 108.053 529.727 108.68C530.073 109.293 530.527 109.767 531.087 110.1C531.66 110.42 532.28 110.58 532.947 110.58C533.627 110.58 534.247 110.42 534.807 110.1C535.38 109.767 535.833 109.293 536.167 108.68C536.5 108.053 536.667 107.32 536.667 106.48ZM542.742 97.2V112H540.922V97.2H542.742ZM555.844 106.1C555.844 106.447 555.824 106.813 555.784 107.2H547.024C547.091 108.28 547.457 109.127 548.124 109.74C548.804 110.34 549.624 110.64 550.584 110.64C551.371 110.64 552.024 110.46 552.544 110.1C553.077 109.727 553.451 109.233 553.664 108.62H555.624C555.331 109.673 554.744 110.533 553.864 111.2C552.984 111.853 551.891 112.18 550.584 112.18C549.544 112.18 548.611 111.947 547.784 111.48C546.971 111.013 546.331 110.353 545.864 109.5C545.397 108.633 545.164 107.633 545.164 106.5C545.164 105.367 545.391 104.373 545.844 103.52C546.297 102.667 546.931 102.013 547.744 101.56C548.571 101.093 549.517 100.86 550.584 100.86C551.624 100.86 552.544 101.087 553.344 101.54C554.144 101.993 554.757 102.62 555.184 103.42C555.624 104.207 555.844 105.1 555.844 106.1ZM553.964 105.72C553.964 105.027 553.811 104.433 553.504 103.94C553.197 103.433 552.777 103.053 552.244 102.8C551.724 102.533 551.144 102.4 550.504 102.4C549.584 102.4 548.797 102.693 548.144 103.28C547.504 103.867 547.137 104.68 547.044 105.72H553.964ZM560.466 102.54V109C560.466 109.533 560.58 109.913 560.806 110.14C561.033 110.353 561.426 110.46 561.986 110.46H563.326V112H561.686C560.673 112 559.913 111.767 559.406 111.3C558.9 110.833 558.646 110.067 558.646 109V102.54H557.226V101.04H558.646V98.28H560.466V101.04H563.326V102.54H560.466ZM575.532 106.1C575.532 106.447 575.512 106.813 575.472 107.2H566.712C566.778 108.28 567.145 109.127 567.812 109.74C568.492 110.34 569.312 110.64 570.272 110.64C571.058 110.64 571.712 110.46 572.232 110.1C572.765 109.727 573.138 109.233 573.352 108.62H575.312C575.018 109.673 574.432 110.533 573.552 111.2C572.672 111.853 571.578 112.18 570.272 112.18C569.232 112.18 568.298 111.947 567.472 111.48C566.658 111.013 566.018 110.353 565.552 109.5C565.085 108.633 564.852 107.633 564.852 106.5C564.852 105.367 565.078 104.373 565.532 103.52C565.985 102.667 566.618 102.013 567.432 101.56C568.258 101.093 569.205 100.86 570.272 100.86C571.312 100.86 572.232 101.087 573.032 101.54C573.832 101.993 574.445 102.62 574.872 103.42C575.312 104.207 575.532 105.1 575.532 106.1ZM573.652 105.72C573.652 105.027 573.498 104.433 573.192 103.94C572.885 103.433 572.465 103.053 571.932 102.8C571.412 102.533 570.832 102.4 570.192 102.4C569.272 102.4 568.485 102.693 567.832 103.28C567.192 103.867 566.825 104.68 566.732 105.72H573.652ZM577.254 106.48C577.254 105.36 577.481 104.38 577.934 103.54C578.387 102.687 579.007 102.027 579.794 101.56C580.594 101.093 581.487 100.86 582.474 100.86C583.327 100.86 584.121 101.06 584.854 101.46C585.587 101.847 586.147 102.36 586.534 103V97.2H588.374V112H586.534V109.94C586.174 110.593 585.641 111.133 584.934 111.56C584.227 111.973 583.401 112.18 582.454 112.18C581.481 112.18 580.594 111.94 579.794 111.46C579.007 110.98 578.387 110.307 577.934 109.44C577.481 108.573 577.254 107.587 577.254 106.48ZM586.534 106.5C586.534 105.673 586.367 104.953 586.034 104.34C585.701 103.727 585.247 103.26 584.674 102.94C584.114 102.607 583.494 102.44 582.814 102.44C582.134 102.44 581.514 102.6 580.954 102.92C580.394 103.24 579.947 103.707 579.614 104.32C579.281 104.933 579.114 105.653 579.114 106.48C579.114 107.32 579.281 108.053 579.614 108.68C579.947 109.293 580.394 109.767 580.954 110.1C581.514 110.42 582.134 110.58 582.814 110.58C583.494 110.58 584.114 110.42 584.674 110.1C585.247 109.767 585.701 109.293 586.034 108.68C586.367 108.053 586.534 107.327 586.534 106.5Z" fill="#2B3A4A"/>
<rect x="451.642" y="97.1705" width="14.343" height="13.3167" fill="#933C58"/>
<rect x="451.642" y="145.315" width="14.343" height="13.3167" fill="#FE82BA"/>
<rect x="451.642" y="193.46" width="14.343" height="13.3167" fill="#DA2F76"/>
<g filter="url(#filter0_d_308_145)">
<ellipse cx="176.321" cy="174.573" rx="168.321" ry="166.573" fill="#933C58"/>
</g>
<g filter="url(#filter1_d_308_145)">
<path d="M57.3001 292.358C74.3825 309.263 94.942 322.331 117.582 330.674C140.221 339.017 164.41 342.44 188.505 340.709C212.6 338.979 236.036 332.136 257.221 320.645C278.406 309.155 296.843 293.286 311.28 274.117L176.321 174.573L57.3001 292.358Z" fill="#D65B83"/>
</g>
<g filter="url(#filter2_d_308_145)">
<path d="M176.321 8C269.282 8 344.642 82.5774 344.642 174.573C344.642 265.85 270.455 339.98 178.497 341.133L176.321 341.146V8Z" fill="#FE82BA"/>
</g>
<g filter="url(#filter3_d_308_145)">
<path d="M344.642 174.573C344.642 265.85 270.455 339.98 178.497 341.133L176.321 341.146L176.321 174.573L344.642 174.573Z" fill="#DA2F76"/>
</g>
<path d="M92.576 116.585C92.656 115.345 93.1293 114.378 93.996 113.685C94.876 112.992 95.996 112.645 97.356 112.645C98.2893 112.645 99.096 112.812 99.776 113.145C100.456 113.478 100.969 113.932 101.316 114.505C101.663 115.078 101.836 115.725 101.836 116.445C101.836 117.272 101.616 117.978 101.176 118.565C100.736 119.152 100.209 119.545 99.596 119.745V119.825C100.383 120.065 100.996 120.505 101.436 121.145C101.876 121.772 102.096 122.578 102.096 123.565C102.096 124.352 101.916 125.052 101.556 125.665C101.196 126.278 100.663 126.765 99.956 127.125C99.2493 127.472 98.4027 127.645 97.416 127.645C95.976 127.645 94.7893 127.278 93.856 126.545C92.936 125.798 92.4427 124.732 92.376 123.345H94.576C94.6293 124.052 94.9027 124.632 95.396 125.085C95.8893 125.525 96.556 125.745 97.396 125.745C98.2093 125.745 98.836 125.525 99.276 125.085C99.716 124.632 99.936 124.052 99.936 123.345C99.936 122.412 99.636 121.752 99.036 121.365C98.4493 120.965 97.5427 120.765 96.316 120.765H95.796V118.885H96.336C97.416 118.872 98.236 118.692 98.796 118.345C99.3693 117.998 99.656 117.452 99.656 116.705C99.656 116.065 99.4493 115.558 99.036 115.185C98.6227 114.798 98.036 114.605 97.276 114.605C96.5293 114.605 95.9493 114.798 95.536 115.185C95.1227 115.558 94.876 116.025 94.796 116.585H92.576ZM105.751 124.465C107.031 123.358 108.038 122.452 108.771 121.745C109.518 121.025 110.138 120.278 110.631 119.505C111.124 118.732 111.371 117.958 111.371 117.185C111.371 116.385 111.178 115.758 110.791 115.305C110.418 114.852 109.824 114.625 109.011 114.625C108.224 114.625 107.611 114.878 107.171 115.385C106.744 115.878 106.518 116.545 106.491 117.385H104.291C104.331 115.865 104.784 114.705 105.651 113.905C106.531 113.092 107.644 112.685 108.991 112.685C110.444 112.685 111.578 113.085 112.391 113.885C113.218 114.685 113.631 115.752 113.631 117.085C113.631 118.045 113.384 118.972 112.891 119.865C112.411 120.745 111.831 121.538 111.151 122.245C110.484 122.938 109.631 123.745 108.591 124.665L107.691 125.465H114.031V127.365H104.311V125.705L105.751 124.465ZM115.674 116.505C115.674 115.532 115.954 114.772 116.514 114.225C117.087 113.665 117.821 113.385 118.714 113.385C119.607 113.385 120.334 113.665 120.894 114.225C121.467 114.772 121.754 115.532 121.754 116.505C121.754 117.478 121.467 118.245 120.894 118.805C120.334 119.365 119.607 119.645 118.714 119.645C117.821 119.645 117.087 119.365 116.514 118.805C115.954 118.245 115.674 117.478 115.674 116.505ZM127.874 113.645L119.894 127.565H117.654L125.634 113.645H127.874ZM118.714 114.765C117.874 114.765 117.454 115.345 117.454 116.505C117.454 117.678 117.874 118.265 118.714 118.265C119.114 118.265 119.421 118.125 119.634 117.845C119.861 117.552 119.974 117.105 119.974 116.505C119.974 115.345 119.554 114.765 118.714 114.765ZM123.814 124.685C123.814 123.712 124.094 122.952 124.654 122.405C125.227 121.845 125.961 121.565 126.854 121.565C127.734 121.565 128.454 121.845 129.014 122.405C129.587 122.952 129.874 123.712 129.874 124.685C129.874 125.658 129.587 126.425 129.014 126.985C128.454 127.545 127.734 127.825 126.854 127.825C125.961 127.825 125.227 127.545 124.654 126.985C124.094 126.425 123.814 125.658 123.814 124.685ZM126.834 122.945C125.994 122.945 125.574 123.525 125.574 124.685C125.574 125.845 125.994 126.425 126.834 126.425C127.674 126.425 128.094 125.845 128.094 124.685C128.094 123.525 127.674 122.945 126.834 122.945Z" fill="#F0F6FF"/>
<path d="M227.536 124.546C228.816 123.44 229.823 122.533 230.556 121.826C231.303 121.106 231.923 120.36 232.416 119.586C232.909 118.813 233.156 118.04 233.156 117.266C233.156 116.466 232.963 115.84 232.576 115.386C232.203 114.933 231.609 114.706 230.796 114.706C230.009 114.706 229.396 114.96 228.956 115.466C228.529 115.96 228.303 116.626 228.276 117.466H226.076C226.116 115.946 226.569 114.786 227.436 113.986C228.316 113.173 229.429 112.766 230.776 112.766C232.229 112.766 233.363 113.166 234.176 113.966C235.003 114.766 235.416 115.833 235.416 117.166C235.416 118.126 235.169 119.053 234.676 119.946C234.196 120.826 233.616 121.62 232.936 122.326C232.269 123.02 231.416 123.826 230.376 124.746L229.476 125.546H235.816V127.446H226.096V125.786L227.536 124.546ZM247.219 115.026H240.519V119.006C240.799 118.633 241.212 118.32 241.759 118.066C242.319 117.813 242.912 117.686 243.539 117.686C244.659 117.686 245.566 117.926 246.259 118.406C246.966 118.886 247.466 119.493 247.759 120.226C248.066 120.96 248.219 121.733 248.219 122.546C248.219 123.533 248.026 124.413 247.639 125.186C247.266 125.946 246.699 126.546 245.939 126.986C245.192 127.426 244.272 127.646 243.179 127.646C241.726 127.646 240.559 127.286 239.679 126.566C238.799 125.846 238.272 124.893 238.099 123.706H240.319C240.466 124.333 240.792 124.833 241.299 125.206C241.806 125.566 242.439 125.746 243.199 125.746C244.146 125.746 244.852 125.46 245.319 124.886C245.799 124.313 246.039 123.553 246.039 122.606C246.039 121.646 245.799 120.913 245.319 120.406C244.839 119.886 244.132 119.626 243.199 119.626C242.546 119.626 241.992 119.793 241.539 120.126C241.099 120.446 240.779 120.886 240.579 121.446H238.419V113.026H247.219V115.026ZM250.232 116.586C250.232 115.613 250.512 114.853 251.072 114.306C251.646 113.746 252.379 113.466 253.272 113.466C254.166 113.466 254.892 113.746 255.452 114.306C256.026 114.853 256.312 115.613 256.312 116.586C256.312 117.56 256.026 118.326 255.452 118.886C254.892 119.446 254.166 119.726 253.272 119.726C252.379 119.726 251.646 119.446 251.072 118.886C250.512 118.326 250.232 117.56 250.232 116.586ZM262.432 113.726L254.452 127.646H252.212L260.192 113.726H262.432ZM253.272 114.846C252.432 114.846 252.012 115.426 252.012 116.586C252.012 117.76 252.432 118.346 253.272 118.346C253.672 118.346 253.979 118.206 254.192 117.926C254.419 117.633 254.532 117.186 254.532 116.586C254.532 115.426 254.112 114.846 253.272 114.846ZM258.372 124.766C258.372 123.793 258.652 123.033 259.212 122.486C259.786 121.926 260.519 121.646 261.412 121.646C262.292 121.646 263.012 121.926 263.572 122.486C264.146 123.033 264.432 123.793 264.432 124.766C264.432 125.74 264.146 126.506 263.572 127.066C263.012 127.626 262.292 127.906 261.412 127.906C260.519 127.906 259.786 127.626 259.212 127.066C258.652 126.506 258.372 125.74 258.372 124.766ZM261.392 123.026C260.552 123.026 260.132 123.606 260.132 124.766C260.132 125.926 260.552 126.506 261.392 126.506C262.232 126.506 262.652 125.926 262.652 124.766C262.652 123.606 262.232 123.026 261.392 123.026Z" fill="#F0F6FF"/>
<path d="M227.536 240.573C228.816 239.467 229.823 238.56 230.556 237.853C231.303 237.133 231.923 236.387 232.416 235.613C232.909 234.84 233.156 234.067 233.156 233.293C233.156 232.493 232.963 231.867 232.576 231.413C232.203 230.96 231.609 230.733 230.796 230.733C230.009 230.733 229.396 230.987 228.956 231.493C228.529 231.987 228.303 232.653 228.276 233.493H226.076C226.116 231.973 226.569 230.813 227.436 230.013C228.316 229.2 229.429 228.793 230.776 228.793C232.229 228.793 233.363 229.193 234.176 229.993C235.003 230.793 235.416 231.86 235.416 233.193C235.416 234.153 235.169 235.08 234.676 235.973C234.196 236.853 233.616 237.647 232.936 238.353C232.269 239.047 231.416 239.853 230.376 240.773L229.476 241.573H235.816V243.473H226.096V241.813L227.536 240.573ZM247.219 231.053H240.519V235.033C240.799 234.66 241.212 234.347 241.759 234.093C242.319 233.84 242.912 233.713 243.539 233.713C244.659 233.713 245.566 233.953 246.259 234.433C246.966 234.913 247.466 235.52 247.759 236.253C248.066 236.987 248.219 237.76 248.219 238.573C248.219 239.56 248.026 240.44 247.639 241.213C247.266 241.973 246.699 242.573 245.939 243.013C245.192 243.453 244.272 243.673 243.179 243.673C241.726 243.673 240.559 243.313 239.679 242.593C238.799 241.873 238.272 240.92 238.099 239.733H240.319C240.466 240.36 240.792 240.86 241.299 241.233C241.806 241.593 242.439 241.773 243.199 241.773C244.146 241.773 244.852 241.487 245.319 240.913C245.799 240.34 246.039 239.58 246.039 238.633C246.039 237.673 245.799 236.94 245.319 236.433C244.839 235.913 244.132 235.653 243.199 235.653C242.546 235.653 241.992 235.82 241.539 236.153C241.099 236.473 240.779 236.913 240.579 237.473H238.419V229.053H247.219V231.053ZM250.232 232.613C250.232 231.64 250.512 230.88 251.072 230.333C251.646 229.773 252.379 229.493 253.272 229.493C254.166 229.493 254.892 229.773 255.452 230.333C256.026 230.88 256.312 231.64 256.312 232.613C256.312 233.587 256.026 234.353 255.452 234.913C254.892 235.473 254.166 235.753 253.272 235.753C252.379 235.753 251.646 235.473 251.072 234.913C250.512 234.353 250.232 233.587 250.232 232.613ZM262.432 229.753L254.452 243.673H252.212L260.192 229.753H262.432ZM253.272 230.873C252.432 230.873 252.012 231.453 252.012 232.613C252.012 233.787 252.432 234.373 253.272 234.373C253.672 234.373 253.979 234.233 254.192 233.953C254.419 233.66 254.532 233.213 254.532 232.613C254.532 231.453 254.112 230.873 253.272 230.873ZM258.372 240.793C258.372 239.82 258.652 239.06 259.212 238.513C259.786 237.953 260.519 237.673 261.412 237.673C262.292 237.673 263.012 237.953 263.572 238.513C264.146 239.06 264.432 239.82 264.432 240.793C264.432 241.767 264.146 242.533 263.572 243.093C263.012 243.653 262.292 243.933 261.412 243.933C260.519 243.933 259.786 243.653 259.212 243.093C258.652 242.533 258.372 241.767 258.372 240.793ZM261.392 239.053C260.552 239.053 260.132 239.633 260.132 240.793C260.132 241.953 260.552 242.533 261.392 242.533C262.232 242.533 262.652 241.953 262.652 240.793C262.652 239.633 262.232 239.053 261.392 239.053Z" fill="#F0F6FF"/>
<path d="M117.874 267.035V264.955H122.034V279.535H119.734V267.035H117.874ZM127.626 271.915C126.24 271.222 125.546 270.128 125.546 268.635C125.546 267.915 125.726 267.255 126.086 266.655C126.446 266.055 126.986 265.582 127.706 265.235C128.426 264.875 129.306 264.695 130.346 264.695C131.373 264.695 132.246 264.875 132.966 265.235C133.7 265.582 134.246 266.055 134.606 266.655C134.966 267.255 135.146 267.915 135.146 268.635C135.146 269.382 134.953 270.042 134.566 270.615C134.193 271.175 133.693 271.608 133.066 271.915C133.826 272.195 134.426 272.655 134.866 273.295C135.306 273.922 135.526 274.662 135.526 275.515C135.526 276.382 135.306 277.148 134.866 277.815C134.426 278.482 133.813 278.995 133.026 279.355C132.24 279.715 131.346 279.895 130.346 279.895C129.346 279.895 128.453 279.715 127.666 279.355C126.893 278.995 126.286 278.482 125.846 277.815C125.406 277.148 125.186 276.382 125.186 275.515C125.186 274.648 125.406 273.902 125.846 273.275C126.286 272.648 126.88 272.195 127.626 271.915ZM132.966 268.915C132.966 268.168 132.733 267.595 132.266 267.195C131.8 266.795 131.16 266.595 130.346 266.595C129.546 266.595 128.913 266.795 128.446 267.195C127.98 267.595 127.746 268.175 127.746 268.935C127.746 269.602 127.986 270.148 128.466 270.575C128.96 270.988 129.586 271.195 130.346 271.195C131.106 271.195 131.733 270.982 132.226 270.555C132.72 270.128 132.966 269.582 132.966 268.915ZM130.346 272.915C129.466 272.915 128.746 273.135 128.186 273.575C127.64 274.002 127.366 274.622 127.366 275.435C127.366 276.195 127.633 276.815 128.166 277.295C128.7 277.762 129.426 277.995 130.346 277.995C131.253 277.995 131.966 277.755 132.486 277.275C133.02 276.795 133.286 276.182 133.286 275.435C133.286 274.635 133.013 274.015 132.466 273.575C131.933 273.135 131.226 272.915 130.346 272.915ZM137.56 268.475C137.56 267.502 137.84 266.742 138.4 266.195C138.974 265.635 139.707 265.355 140.6 265.355C141.494 265.355 142.22 265.635 142.78 266.195C143.354 266.742 143.64 267.502 143.64 268.475C143.64 269.448 143.354 270.215 142.78 270.775C142.22 271.335 141.494 271.615 140.6 271.615C139.707 271.615 138.974 271.335 138.4 270.775C137.84 270.215 137.56 269.448 137.56 268.475ZM149.76 265.615L141.78 279.535H139.54L147.52 265.615H149.76ZM140.6 266.735C139.76 266.735 139.34 267.315 139.34 268.475C139.34 269.648 139.76 270.235 140.6 270.235C141 270.235 141.307 270.095 141.52 269.815C141.747 269.522 141.86 269.075 141.86 268.475C141.86 267.315 141.44 266.735 140.6 266.735ZM145.7 276.655C145.7 275.682 145.98 274.922 146.54 274.375C147.114 273.815 147.847 273.535 148.74 273.535C149.62 273.535 150.34 273.815 150.9 274.375C151.474 274.922 151.76 275.682 151.76 276.655C151.76 277.628 151.474 278.395 150.9 278.955C150.34 279.515 149.62 279.795 148.74 279.795C147.847 279.795 147.114 279.515 146.54 278.955C145.98 278.395 145.7 277.628 145.7 276.655ZM148.72 274.915C147.88 274.915 147.46 275.495 147.46 276.655C147.46 277.815 147.88 278.395 148.72 278.395C149.56 278.395 149.98 277.815 149.98 276.655C149.98 275.495 149.56 274.915 148.72 274.915Z" fill="#F0F6FF"/>
<defs>
<filter id="filter0_d_308_145" x="0" y="0" width="352.642" height="349.146" filterUnits="userSpaceOnUse" color-interpolation-filters="sRGB">
<feFlood flood-opacity="0" result="BackgroundImageFix"/>
<feColorMatrix in="SourceAlpha" type="matrix" values="0 0 0 0 0 0 0 0 0 0 0 0 0 0 0 0 0 0 127 0" result="hardAlpha"/>
<feOffset/>
<feGaussianBlur stdDeviation="4"/>
<feComposite in2="hardAlpha" operator="out"/>
<feColorMatrix type="matrix" values="0 0 0 0 0 0 0 0 0 0 0 0 0 0 0 0 0 0 0.16 0"/>
<feBlend mode="normal" in2="BackgroundImageFix" result="effect1_dropShadow_308_145"/>
<feBlend mode="normal" in="SourceGraphic" in2="effect1_dropShadow_308_145" result="shape"/>
</filter>
<filter id="filter1_d_308_145" x="49.3" y="166.573" width="269.98" height="182.573" filterUnits="userSpaceOnUse" color-interpolation-filters="sRGB">
<feFlood flood-opacity="0" result="BackgroundImageFix"/>
<feColorMatrix in="SourceAlpha" type="matrix" values="0 0 0 0 0 0 0 0 0 0 0 0 0 0 0 0 0 0 127 0" result="hardAlpha"/>
<feOffset/>
<feGaussianBlur stdDeviation="4"/>
<feComposite in2="hardAlpha" operator="out"/>
<feColorMatrix type="matrix" values="0 0 0 0 0 0 0 0 0 0 0 0 0 0 0 0 0 0 0.16 0"/>
<feBlend mode="normal" in2="BackgroundImageFix" result="effect1_dropShadow_308_145"/>
<feBlend mode="normal" in="SourceGraphic" in2="effect1_dropShadow_308_145" result="shape"/>
</filter>
<filter id="filter2_d_308_145" x="168.321" y="0" width="184.321" height="349.146" filterUnits="userSpaceOnUse" color-interpolation-filters="sRGB">
<feFlood flood-opacity="0" result="BackgroundImageFix"/>
<feColorMatrix in="SourceAlpha" type="matrix" values="0 0 0 0 0 0 0 0 0 0 0 0 0 0 0 0 0 0 127 0" result="hardAlpha"/>
<feOffset/>
<feGaussianBlur stdDeviation="4"/>
<feComposite in2="hardAlpha" operator="out"/>
<feColorMatrix type="matrix" values="0 0 0 0 0 0 0 0 0 0 0 0 0 0 0 0 0 0 0.16 0"/>
<feBlend mode="normal" in2="BackgroundImageFix" result="effect1_dropShadow_308_145"/>
<feBlend mode="normal" in="SourceGraphic" in2="effect1_dropShadow_308_145" result="shape"/>
</filter>
<filter id="filter3_d_308_145" x="168.321" y="166.573" width="184.321" height="182.573" filterUnits="userSpaceOnUse" color-interpolation-filters="sRGB">
<feFlood flood-opacity="0" result="BackgroundImageFix"/>
<feColorMatrix in="SourceAlpha" type="matrix" values="0 0 0 0 0 0 0 0 0 0 0 0 0 0 0 0 0 0 127 0" result="hardAlpha"/>
<feOffset/>
<feGaussianBlur stdDeviation="4"/>
<feComposite in2="hardAlpha" operator="out"/>
<feColorMatrix type="matrix" values="0 0 0 0 0 0 0 0 0 0 0 0 0 0 0 0 0 0 0.16 0"/>
<feBlend mode="normal" in2="BackgroundImageFix" result="effect1_dropShadow_308_145"/>
<feBlend mode="normal" in="SourceGraphic" in2="effect1_dropShadow_308_145" result="shape"/>
</filter>
</defs>
</svg>
